SplineFontDB: 3.0
FontName: AftaSansThin
FullName: Afta Sans Thin
FamilyName: Afta Sans Thin
Weight: Thin
Copyright: Copyright (c) 2010 by Oriol Esparraguera Font. All rights reserved.
Version: 1.000
ItalicAngle: 0
UnderlinePosition: -75
UnderlineWidth: 50
Ascent: 800
Descent: 200
sfntRevision: 0x00010000
LayerCount: 2
Layer: 0 1 "Back"  1
Layer: 1 1 "Fore"  0
NeedsXUIDChange: 1
XUID: [1021 288 713564382 8436225]
FSType: 0
OS2Version: 3
OS2_WeightWidthSlopeOnly: 0
OS2_UseTypoMetrics: 1
CreationTime: 1287916140
ModificationTime: 1304692576
PfmFamily: 33
TTFWeight: 400
TTFWidth: 5
LineGap: 0
VLineGap: 0
Panose: 2 0 5 3 0 0 0 2 0 4
OS2TypoAscent: 980
OS2TypoAOffset: 0
OS2TypoDescent: -235
OS2TypoDOffset: 0
OS2TypoLinegap: 0
OS2WinAscent: 980
OS2WinAOffset: 0
OS2WinDescent: 235
OS2WinDOffset: 0
HheadAscent: 980
HheadAOffset: 0
HheadDescent: -235
HheadDOffset: 0
OS2SubXSize: 204
OS2SubYSize: 204
OS2SubXOff: 0
OS2SubYOff: 286
OS2SupXSize: 204
OS2SupYSize: 204
OS2SupXOff: 0
OS2SupYOff: 286
OS2StrikeYSize: 50
OS2StrikeYPos: 250
OS2Vendor: 'AFTA'
OS2CodePages: 20000011.00000000
OS2UnicodeRanges: 8000006f.40000042.00000000.00000000
Lookup: 258 0 0 "'kern' Horizontal Kerning in Latin lookup 0"  {"'kern' Horizontal Kerning in Latin lookup 0 subtable"  } ['kern' ('DFLT' <'dflt' > 'latn' <'dflt' > ) ]
MarkAttachClasses: 1
DEI: 91125
TtTable: prep
PUSHW_1
 511
SCANCTRL
PUSHB_1
 4
SCANTYPE
EndTTInstrs
TtTable: fpgm
PUSHW_1
 0
FDEF
MPPEM
PUSHW_1
 9
LT
IF
PUSHB_2
 1
 1
INSTCTRL
EIF
PUSHW_1
 511
SCANCTRL
PUSHW_1
 68
SCVTCI
PUSHW_2
 9
 3
SDS
SDB
ENDF
PUSHW_1
 1
FDEF
DUP
DUP
RCVT
ROUND[Black]
WCVTP
PUSHB_1
 1
ADD
ENDF
PUSHW_1
 2
FDEF
PUSHW_1
 1
LOOPCALL
POP
ENDF
PUSHW_1
 3
FDEF
DUP
GC[cur]
PUSHB_1
 3
CINDEX
GC[cur]
GT
IF
SWAP
EIF
DUP
ROLL
DUP
ROLL
MD[grid]
ABS
ROLL
DUP
GC[cur]
DUP
ROUND[Grey]
SUB
ABS
PUSHB_1
 4
CINDEX
GC[cur]
DUP
ROUND[Grey]
SUB
ABS
GT
IF
SWAP
NEG
ROLL
EIF
MDAP[rnd]
DUP
PUSHB_1
 0
GTEQ
IF
ROUND[Black]
DUP
PUSHB_1
 0
EQ
IF
POP
PUSHB_1
 64
EIF
ELSE
ROUND[Black]
DUP

StartChar: exclam
Encoding: 33 33 4
Width: 264
Flags: HW
LayerCount: 2
Fore
SplineSet
95 86 m 1,0,-1
 180 86 l 1,1,-1
 180 0 l 1,2,-1
 95 0 l 1,3,-1
 95 86 l 1,0,-1
144 225 m 1,4,-1
 123 225 l 1,5,-1
 98 519 l 1,6,-1
 98 732 l 1,7,-1
 169 732 l 1,8,-1
 169 519 l 1,9,-1
 144 225 l 1,4,-1
EndSplineSet
EndChar

StartChar: quotedbl
Encoding: 34 34 5
Width: 435
Flags: HW
LayerCount: 2
Fore
SplineSet
283 493 m 1,0,-1
 283 730 l 1,1,-1
 327 730 l 1,2,-1
 327 493 l 1,3,-1
 283 493 l 1,0,-1
176 730 m 1,4,-1
 176 493 l 1,5,-1
 130 493 l 1,6,-1
 130 730 l 1,7,-1
 176 730 l 1,4,-1
EndSplineSet
EndChar

StartChar: numbersign
Encoding: 35 35 6
Width: 574
Flags: HW
LayerCount: 2
Fore
SplineSet
248 458 m 1,0,-1
 212 254 l 1,1,-1
 378 254 l 1,2,3
 385 293 385 293 390.5 322.5 c 128,-1,4
 396 352 396 352 400 376 c 128,-1,5
 404 400 404 400 407.5 420 c 128,-1,6
 411 440 411 440 414 458 c 1,7,-1
 248 458 l 1,0,-1
207 223 m 1,8,9
 172 2 172 2 171 0 c 1,10,-1
 125 0 l 1,11,-1
 162 223 l 1,12,-1
 46 223 l 1,13,-1
 46 254 l 1,14,-1
 167 254 l 1,15,-1
 202 458 l 1,16,-1
 72 458 l 1,17,-1
 72 489 l 1,18,-1
 207 489 l 1,19,-1
 243 709 l 1,20,-1
 289 709 l 1,21,-1
 251 489 l 1,22,-1
 419 489 l 1,23,-1
 456 709 l 1,24,-1
 503 709 l 1,25,-1
 464 489 l 1,26,-1
 560 489 l 1,27,-1
 560 458 l 1,28,-1
 459 458 l 1,29,-1
 425 254 l 1,30,-1
 528 254 l 1,31,-1
 528 223 l 1,32,-1
 422 223 l 1,33,34
 405 142 405 142 384 0 c 1,35,-1
 338 0 l 1,36,-1
 375 223 l 1,37,-1
 207 223 l 1,8,9
EndSplineSet
EndChar

StartChar: dollar
Encoding: 36 36 7
Width: 585
Flags: HW
LayerCount: 2
Fore
SplineSet
329 27 m 1,0,1
 405 48 405 48 446.5 86.5 c 128,-1,2
 488 125 488 125 488 174 c 0,3,4
 488 215 488 215 468 244 c 0,5,6
 428 301 428 301 329 344 c 1,7,-1
 329 27 l 1,0,1
298 708 m 1,8,9
 225 695 225 695 181.5 658.5 c 128,-1,10
 138 622 138 622 138 566 c 128,-1,11
 138 510 138 510 183.5 472.5 c 128,-1,12
 229 435 229 435 298 409 c 1,13,-1
 298 708 l 1,8,9
329 751 m 1,14,15
 471 743 471 743 543 704 c 1,16,-1
 543 654 l 1,17,18
 447 700 447 700 329 709 c 1,19,-1
 329 405 l 1,20,21
 440 365 440 365 482 332.5 c 128,-1,22
 524 300 524 300 545.5 263 c 128,-1,23
 567 226 567 226 567 176.5 c 128,-1,24
 567 127 567 127 545 93 c 0,25,26
 522 60 522 60 488 36 c 0,27,28
 426 -6 426 -6 329 -19 c 1,29,-1
 329 -119 l 1,30,-1
 298 -119 l 1,31,-1
 298 -20 l 1,32,33
 205 -16 205 -16 144.5 3 c 128,-1,34
 84 22 84 22 58 40 c 1,35,-1
 58 105 l 1,36,37
 93 79 93 79 155 55.5 c 128,-1,38
 217 32 217 32 298 28 c 1,39,-1
 298 349 l 1,40,41
 181 384 181 384 119.5 433 c 128,-1,42
 58 482 58 482 58 564 c 0,43,44
 58 632 58 632 118 684 c 0,45,46
 184 740 184 740 298 751 c 1,47,-1
 298 820 l 1,48,-1
 329 820 l 1,49,-1
 329 751 l 1,14,15
EndSplineSet
EndChar

StartChar: percent
Encoding: 37 37 8
Width: 1000
Flags: HW
LayerCount: 2
Fore
SplineSet
721 370 m 0,0,1
 751 384 751 384 797 383.5 c 128,-1,2
 843 383 843 383 873 366 c 0,3,4
 903 350 903 350 920 322 c 0,5,6
 950 274 950 274 952 183 c 1,7,8
 950 64 950 64 898 20 c 0,9,10
 864 -10 864 -10 796 -9 c 1,11,12
 724 -10 724 -10 688 20 c 0,13,14
 634 65 634 65 633 183 c 1,15,16
 636 332 636 332 721 370 c 0,0,1
746 14 m 0,17,18
 768 6 768 6 796.5 6 c 128,-1,19
 825 6 825 6 847 15 c 0,20,21
 870 24 870 24 884 44 c 0,22,23
 914 86 914 86 913 183 c 0,24,25
 914 286 914 286 886 326 c 0,26,27
 859 365 859 365 795 365 c 0,28,29
 734 365 734 365 706 325 c 0,30,31
 674 280 674 280 674 179 c 0,32,33
 674 39 674 39 746 14 c 0,17,18
848 740 m 1,34,-1
 285 -19 l 1,35,-1
 235 -19 l 1,36,-1
 797 740 l 1,37,-1
 848 740 l 1,34,-1
264 353 m 1,38,39
 290 353 290 353 312 361 c 128,-1,40
 334 369 334 369 350 389 c 0,41,42
 382 431 382 431 382 525 c 0,43,44
 382 669 382 669 311 695 c 0,45,46
 289 703 289 703 262.5 703 c 128,-1,47
 236 703 236 703 213.5 695 c 0,48,49
 192 686 192 686 176 666 c 0,50,51
 144 623 144 623 143 522 c 0,52,53
 144 428 144 428 180 386 c 0,54,55
 208 353 208 353 264 353 c 1,38,39
263 726 m 0,56,57
 390 726 390 726 414 600 c 0,58,59
 421 564 421 564 422 525 c 1,60,61
 420 408 420 408 366 362 c 0,62,63
 329 332 329 332 264 332 c 0,64,65
 200 332 200 332 162 362 c 0,66,67
 103 409 103 409 102 525 c 1,68,69
 104 621 104 621 141 673.5 c 128,-1,70
 178 726 178 726 263 726 c 0,56,57
EndSplineSet
EndChar

StartChar: ampersand
Encoding: 38 38 9
Width: 759
Flags: HW
LayerCount: 2
Fore
SplineSet
579 29 m 1,0,1
 476 -18 476 -18 327 -18 c 0,2,3
 107 -18 107 -18 61 138 c 0,4,5
 46 188 46 188 46 250 c 128,-1,6
 46 312 46 312 59 354.5 c 128,-1,7
 72 397 72 397 100 426 c 0,8,9
 152 481 152 481 269 499 c 1,10,11
 264 520 264 520 260 533 c 128,-1,12
 256 546 256 546 253 558 c 0,13,14
 247 581 247 581 247 615.5 c 128,-1,15
 247 650 247 650 261 672 c 0,16,17
 276 694 276 694 298 706 c 0,18,19
 336 727 336 727 405 728 c 0,20,21
 407 728 407 728 409 728 c 0,22,23
 481 728 481 728 523.5 702.5 c 128,-1,24
 566 677 566 677 566 614 c 0,25,26
 566 596 566 596 558 548 c 1,27,28
 663 530 663 530 709 474 c 0,29,30
 756 417 756 417 756 306 c 0,31,32
 756 230 756 230 727.5 168 c 128,-1,33
 699 106 699 106 631 56 c 1,34,35
 685 26 685 26 741 26 c 0,36,37
 822 26 822 26 897 67 c 1,38,-1
 897 14 l 1,39,40
 843 -16 843 -16 738 -16 c 0,41,42
 698 -16 698 -16 661 -7.5 c 128,-1,43
 624 1 624 1 579 29 c 1,0,1
274 473 m 1,44,45
 233 462 233 462 202.5 449.5 c 0,46,47
 172 436 172 436 152 414 c 0,48,49
 112 369 112 369 112 258 c 0,50,51
 112 126 112 126 165 73 c 0,52,53
 214 24 214 24 317 24 c 128,-1,54
 420 24 420 24 537 57 c 1,55,56
 444 146 444 146 381 253.5 c 128,-1,57
 318 361 318 361 274 473 c 1,44,45
546 517 m 1,58,59
 506 399 506 399 424 263 c 1,60,61
 494 158 494 158 534 120 c 0,62,63
 550 104 550 104 572 86 c 1,64,65
 630 114 630 114 659.5 167 c 128,-1,66
 689 220 689 220 689 310 c 0,67,68
 688 410 688 410 654 454 c 0,69,70
 636 476 636 476 609.5 490 c 128,-1,71
 583 504 583 504 546 517 c 1,58,59
509 535.5 m 128,-1,73
 518 569 518 569 518 597.5 c 128,-1,74
 518 626 518 626 509 643 c 128,-1,75
 500 660 500 660 485 669 c 0,76,77
 460 684 460 684 421 684 c 128,-1,78
 382 684 382 684 361 681 c 128,-1,79
 340 678 340 678 324 669 c 0,80,81
 292 650 292 650 292 598 c 0,82,83
 292 526 292 526 370 374 c 0,84,85
 390 334 390 334 408 306 c 1,86,87
 466 420 466 420 483 461 c 128,-1,72
 500 502 500 502 509 535.5 c 128,-1,73
EndSplineSet
EndChar

StartChar: quotesingle
Encoding: 39 39 10
Width: 286
Flags: HW
LayerCount: 2
Fore
SplineSet
130 493 m 1,0,-1
 130 730 l 1,1,-1
 175 730 l 1,2,-1
 175 493 l 1,3,-1
 130 493 l 1,0,-1
EndSplineSet
EndChar

StartChar: parenleft
Encoding: 40 40 11
Width: 315
Flags: HW
LayerCount: 2
Fore
SplineSet
138 269 m 0,0,1
 138 73 138 73 295 -213 c 1,2,-1
 266 -213 l 1,3,4
 152 -80 152 -80 92 100 c 0,5,6
 66 180 66 180 65.5 258 c 128,-1,7
 65 336 65 336 81 402.5 c 0,8,9
 96 469 96 469 124 531 c 0,10,11
 178 653 178 653 266 753 c 1,12,-1
 302 753 l 1,13,14
 202 600 202 600 156 416 c 0,15,16
 138 343 138 343 138 269 c 0,0,1
EndSplineSet
EndChar

StartChar: parenright
Encoding: 41 41 12
Width: 308
Flags: HW
LayerCount: 2
Fore
SplineSet
58 753 m 1,0,1
 260 503 260 503 260 269 c 0,2,3
 260 79 260 79 126 -123 c 0,4,5
 104 -157 104 -157 85.5 -180 c 128,-1,6
 67 -203 67 -203 59 -213 c 1,7,-1
 28 -213 l 1,8,9
 105 -65 105 -65 132 8 c 0,10,11
 187 156 187 156 187 269 c 0,12,13
 187 398 187 398 123 556 c 0,14,15
 81 661 81 661 22 753 c 1,16,-1
 58 753 l 1,0,1
EndSplineSet
EndChar

StartChar: asterisk
Encoding: 42 42 13
Width: 329
Flags: HW
LayerCount: 2
Fore
SplineSet
291 679 m 1,0,1
 300 657 300 657 300 656 c 1,2,3
 275 645 275 645 243.5 631.5 c 128,-1,4
 212 618 212 618 184 605 c 1,5,6
 201 597 201 597 238 577.5 c 0,7,8
 276 558 276 558 288 552 c 2,9,-1
 300 545 l 1,10,-1
 292 520 l 1,11,-1
 189 592 l 1,12,-1
 189 462 l 1,13,-1
 163 462 l 1,14,-1
 163 592 l 1,15,-1
 60 520 l 1,16,-1
 52 545 l 1,17,18
 99 573 99 573 168 605 c 1,19,-1
 52 656 l 1,20,21
 54 664 54 664 56.5 669 c 128,-1,22
 59 674 59 674 61 679 c 1,23,-1
 163 625 l 1,24,-1
 163 731 l 1,25,-1
 189 731 l 1,26,-1
 189 625 l 1,27,-1
 291 679 l 1,0,1
EndSplineSet
EndChar

StartChar: plus
Encoding: 43 43 14
Width: 600
Flags: HW
LayerCount: 2
Fore
SplineSet
331 509 m 1,0,-1
 331 274 l 1,1,-1
 567 274 l 1,2,-1
 567 232 l 1,3,-1
 331 232 l 1,4,-1
 331 1 l 1,5,-1
 286 1 l 1,6,-1
 286 232 l 1,7,-1
 59 232 l 1,8,-1
 59 274 l 1,9,-1
 286 274 l 1,10,-1
 286 509 l 1,11,-1
 331 509 l 1,0,-1
EndSplineSet
EndChar

StartChar: comma
Encoding: 44 44 15
Width: 278
Flags: HW
LayerCount: 2
Fore
SplineSet
193 84 m 1,0,1
 201 26 201 26 201 -17 c 128,-1,2
 201 -60 201 -60 192 -91.5 c 0,3,4
 184 -124 184 -124 168 -144 c 0,5,6
 140 -181 140 -181 92 -187 c 1,7,-1
 92 -152 l 1,8,9
 161 -145 161 -145 165 -52 c 0,10,11
 166 -26 166 -26 166 0 c 1,12,-1
 106 0 l 1,13,-1
 106 84 l 1,14,-1
 193 84 l 1,0,1
EndSplineSet
EndChar

StartChar: hyphen
Encoding: 45 45 16
Width: 398
Flags: HW
LayerCount: 2
Fore
SplineSet
347 304 m 1,0,-1
 347 253 l 1,1,-1
 67 253 l 1,2,-1
 67 304 l 1,3,-1
 347 304 l 1,0,-1
EndSplineSet
EndChar

StartChar: period
Encoding: 46 46 17
Width: 271
Flags: HW
LayerCount: 2
Fore
SplineSet
106 83 m 1,0,-1
 191 83 l 1,1,-1
 191 -1 l 1,2,-1
 106 -1 l 1,3,-1
 106 83 l 1,0,-1
EndSplineSet
EndChar

StartChar: slash
Encoding: 47 47 18
Width: 347
Flags: HW
LayerCount: 2
Fore
SplineSet
310 753 m 1,0,-1
 357 753 l 1,1,-1
 53 -19 l 1,2,-1
 6 -19 l 1,3,-1
 310 753 l 1,0,-1
EndSplineSet
EndChar

StartChar: zero
Encoding: 48 48 19
Width: 650
Flags: HW
LayerCount: 2
Fore
SplineSet
426.5 661 m 128,-1,1
 388 678 388 678 341 678 c 128,-1,2
 294 678 294 678 253.5 661.5 c 0,3,4
 212 646 212 646 184 606 c 0,5,6
 124 522 124 522 124 341 c 0,7,8
 124 168 124 168 189 90 c 0,9,10
 243 25 243 25 343 25 c 257,11,12
 492 26 492 26 538 198 c 0,13,14
 554 260 554 260 554.5 350 c 128,-1,15
 555 440 555 440 538.5 503 c 128,-1,16
 522 566 522 566 493.5 605 c 128,-1,0
 465 644 465 644 426.5 661 c 128,-1,1
240.5 709 m 128,-1,18
 292 723 292 723 331.5 723 c 128,-1,19
 371 723 371 723 402.5 718 c 128,-1,20
 434 713 434 713 465 698.5 c 128,-1,21
 496 684 496 684 524.5 658.5 c 0,22,23
 552 633 552 633 574 591 c 0,24,25
 620 500 620 500 621 348 c 0,26,27
 622 80 622 80 460 8 c 0,28,29
 407 -16 407 -16 343 -16 c 257,30,31
 238 -16 238 -16 162 46 c 0,32,33
 97 99 97 99 70 210 c 0,34,35
 56 268 56 268 56 367 c 128,-1,36
 56 466 56 466 81.5 539.5 c 128,-1,37
 107 613 107 613 148 654 c 128,-1,17
 189 695 189 695 240.5 709 c 128,-1,18
EndSplineSet
EndChar

StartChar: one
Encoding: 49 49 20
Width: 435
Flags: HW
LayerCount: 2
Fore
SplineSet
255 726 m 1,0,-1
 255 0 l 1,1,-1
 189 0 l 1,2,-1
 189 674 l 1,3,4
 164 667 164 667 147 662 c 0,5,6
 109 651 109 651 105 651 c 0,7,8
 104 651 l 2,9,-1
 104 680 l 1,10,11
 120 690 120 690 130 697 c 2,12,-1
 153 712 l 2,13,14
 165 720 165 720 173 726 c 1,15,-1
 255 726 l 1,0,-1
EndSplineSet
EndChar

StartChar: two
Encoding: 50 50 21
Width: 581
Flags: HW
LayerCount: 2
Fore
SplineSet
112 601 m 1,0,1
 66 637 66 637 62 640 c 1,2,3
 88 674 88 674 144.5 700 c 128,-1,4
 201 726 201 726 266.5 726 c 128,-1,5
 332 726 332 726 375 711 c 128,-1,6
 418 696 418 696 446 670 c 0,7,8
 501 619 501 619 501 542 c 128,-1,9
 501 465 501 465 458 405.5 c 128,-1,10
 415 346 415 346 322 301 c 1,11,12
 230 254 230 254 182 201 c 0,13,14
 121 132 121 132 117 48 c 1,15,-1
 524 48 l 1,16,-1
 524 0 l 1,17,-1
 34 0 l 1,18,19
 38 142 38 142 111 226 c 0,20,21
 146 266 146 266 195 297.5 c 128,-1,22
 244 329 244 329 309.5 362 c 128,-1,23
 375 395 375 395 406 440.5 c 128,-1,24
 437 486 437 486 437 537 c 0,25,26
 436 594 436 594 398 632 c 0,27,28
 355 675 355 675 274 679 c 1,29,30
 174 679 174 679 112 601 c 1,0,1
EndSplineSet
EndChar

StartChar: three
Encoding: 51 51 22
Width: 620
Flags: HW
LayerCount: 2
Fore
SplineSet
43 75 m 1,0,1
 152 26 152 26 282 26 c 1,2,3
 398 26 398 26 460 92 c 0,4,5
 486 120 486 120 496 150 c 128,-1,6
 506 180 506 180 506 204.5 c 128,-1,7
 506 229 506 229 493 256.5 c 128,-1,8
 480 284 480 284 455 306 c 0,9,10
 399 356 399 356 305 357 c 2,11,-1
 219 357 l 1,12,-1
 219 405 l 1,13,-1
 305 405 l 2,14,15
 392 404 392 404 434 448 c 0,16,17
 466 482 466 482 467 546 c 0,18,19
 466 633 466 633 382 667 c 0,20,21
 352 679 352 679 311 679 c 0,22,23
 210 679 210 679 62 605 c 1,24,-1
 62 659 l 1,25,26
 109 683 109 683 171 705 c 128,-1,27
 233 727 233 727 294.5 727 c 128,-1,28
 356 727 356 727 398 718 c 128,-1,29
 440 709 440 709 472 689 c 0,30,31
 543 645 543 645 543 561 c 0,32,33
 543 493 543 493 513 448.5 c 128,-1,34
 483 404 483 404 413 385 c 1,35,36
 500 363 500 363 538 330 c 0,37,38
 590 284 590 284 590 202 c 0,39,40
 590 111 590 111 510 49 c 0,41,42
 424 -17 424 -17 288 -17 c 1,43,44
 158 -18 158 -18 73 10 c 0,45,46
 53 16 53 16 43 22 c 1,47,-1
 43 75 l 1,0,1
EndSplineSet
EndChar

StartChar: four
Encoding: 52 52 23
Width: 676
Flags: HW
LayerCount: 2
Fore
SplineSet
425 244 m 1,0,-1
 425 674 l 1,1,2
 298 522 298 522 211.5 416.5 c 128,-1,3
 125 311 125 311 70 244 c 1,4,-1
 425 244 l 1,0,-1
37 263 m 1,5,-1
 430 727 l 1,6,-1
 490 727 l 1,7,-1
 490 244 l 1,8,-1
 655 244 l 1,9,-1
 655 201 l 1,10,-1
 490 201 l 1,11,-1
 490 0 l 1,12,-1
 425 0 l 1,13,-1
 425 201 l 1,14,-1
 37 201 l 1,15,-1
 37 263 l 1,5,-1
EndSplineSet
EndChar

StartChar: five
Encoding: 53 53 24
Width: 620
Flags: HW
LayerCount: 2
Fore
SplineSet
44 111 m 1,0,1
 189 41 189 41 301 41 c 0,2,3
 408 41 408 41 466 112 c 0,4,5
 514 171 514 171 515 250 c 0,6,7
 514 331 514 331 466 382 c 0,8,9
 409 442 409 442 301 442 c 0,10,11
 230 442 230 442 146 412 c 0,12,13
 126 404 126 404 114 400 c 1,14,-1
 60 432 l 1,15,16
 72 508 72 508 81.5 564 c 128,-1,17
 91 620 91 620 94.5 640.5 c 128,-1,18
 98 661 98 661 100 673 c 128,-1,19
 102 685 102 685 103.5 695.5 c 128,-1,20
 105 706 105 706 107 715 c 1,21,-1
 579 715 l 1,22,23
 575 691 575 691 572 676 c 1,24,-1
 166 676 l 1,25,-1
 137 446 l 1,26,27
 224 483 224 483 294 483 c 128,-1,28
 364 483 364 483 416.5 470 c 0,29,30
 469 456 469 456 507 428 c 0,31,32
 587 368 587 368 587 250 c 0,33,34
 588 130 588 130 506 64 c 0,35,36
 427 0 427 0 301 0 c 0,37,38
 132 0 132 0 44 53 c 1,39,-1
 44 111 l 1,0,1
EndSplineSet
EndChar

StartChar: six
Encoding: 54 54 25
Width: 602
Flags: HW
LayerCount: 2
Fore
SplineSet
133 219 m 1,0,1
 133 150 133 150 180 94 c 0,2,3
 233 31 233 31 313 30 c 0,4,5
 374 30 374 30 416 57 c 128,-1,6
 458 84 458 84 480.5 125 c 0,7,8
 504 166 504 166 506 214 c 0,9,10
 506 220 506 220 506 225 c 0,11,12
 506 266 506 266 490 302 c 0,13,14
 472 343 472 343 435 370 c 128,-1,15
 398 397 398 397 350.5 397 c 128,-1,16
 303 397 303 397 270.5 382 c 128,-1,17
 238 367 238 367 212 342 c 0,18,19
 160 292 160 292 133 219 c 1,0,1
563 601 m 1,20,21
 439 677 439 677 336 677 c 0,22,23
 240 676 240 676 186 606 c 0,24,25
 143 550 143 550 127 448 c 0,26,27
 119 395 119 395 119 336 c 0,28,29
 119 311 119 311 120 285 c 1,30,31
 126 303 126 303 143.5 330.5 c 0,32,33
 162 358 162 358 190 384 c 0,34,35
 259 446 259 446 340 445.5 c 128,-1,36
 421 445 421 445 474.5 411.5 c 128,-1,37
 528 378 528 378 554 327 c 0,38,39
 580 278 580 278 580 222 c 0,40,41
 580 161 580 161 549 108 c 0,42,43
 519 57 519 57 460.5 23.5 c 128,-1,44
 402 -10 402 -10 328 -10 c 128,-1,45
 254 -10 254 -10 205.5 7.5 c 128,-1,46
 157 25 157 25 123 67 c 0,47,48
 52 155 52 155 52 356 c 0,49,50
 52 550 52 550 136 644 c 0,51,52
 209 726 209 726 336 727 c 0,53,54
 398 728 398 728 443 712 c 0,55,56
 501 692 501 692 567 659 c 1,57,-1
 563 601 l 1,20,21
EndSplineSet
EndChar

StartChar: seven
Encoding: 55 55 26
Width: 613
Flags: HW
LayerCount: 2
Fore
SplineSet
72 709 m 1,0,-1
 576 709 l 1,1,2
 576 667 576 667 564.5 645.5 c 128,-1,3
 553 624 553 624 544 612.5 c 128,-1,4
 535 601 535 601 530.5 594 c 128,-1,5
 526 587 526 587 513.5 571.5 c 128,-1,6
 501 556 501 556 479.5 529 c 128,-1,7
 458 502 458 502 429 465.5 c 128,-1,8
 400 429 400 429 367 388 c 1,9,10
 310 305 310 305 310 209 c 2,11,-1
 310 0 l 1,12,-1
 242 0 l 1,13,-1
 242 209 l 2,14,15
 242 280 242 280 263.5 327 c 128,-1,16
 285 374 285 374 311 409 c 0,17,18
 427 559 427 559 519 672 c 1,19,-1
 56 672 l 1,20,-1
 72 709 l 1,0,-1
EndSplineSet
EndChar

StartChar: eight
Encoding: 56 56 27
Width: 613
Flags: HW
LayerCount: 2
Fore
SplineSet
349 445 m 1,0,1
 354 446 354 446 375 455.5 c 128,-1,2
 396 465 396 465 419 482 c 0,3,4
 479 526 479 526 479 576 c 0,5,6
 479 637 479 637 424 662 c 0,7,8
 385 680 385 680 315 680 c 1,9,10
 254 680 254 680 208 656 c 0,11,12
 152 627 152 627 151 576 c 0,13,14
 151 530 151 530 230 490 c 0,15,16
 271 468 271 468 349 445 c 1,0,1
280 402 m 1,17,18
 205 379 205 379 160.5 326 c 128,-1,19
 116 273 116 273 116 195 c 0,20,21
 116 112 116 112 181 68 c 0,22,23
 237 31 237 31 316 30 c 0,24,25
 400 30 400 30 458 74 c 0,26,27
 518 120 518 120 518 195 c 0,28,29
 518 284 518 284 441 343 c 0,30,31
 372 395 372 395 280 402 c 1,17,18
549 567 m 0,32,33
 549 469 549 469 408 418 c 1,34,35
 492 378 492 378 534 332 c 0,36,37
 588 272 588 272 589 195 c 0,38,39
 588 92 588 92 510 36 c 0,40,41
 436 -18 436 -18 315 -17 c 1,42,43
 127 -16 127 -16 70 94 c 0,44,45
 49 134 49 134 49 188 c 128,-1,46
 49 242 49 242 69 279 c 0,47,48
 88 316 88 316 116 344 c 0,49,50
 163 392 163 392 224 416 c 1,51,52
 136 453 136 453 96 512 c 0,53,54
 80 537 80 537 79 567 c 0,55,56
 79 643 79 643 140 684.5 c 128,-1,57
 201 726 201 726 316 726 c 0,58,59
 430 726 430 726 492 679 c 0,60,61
 549 636 549 636 549 567 c 0,32,33
EndSplineSet
EndChar

StartChar: nine
Encoding: 57 57 28
Width: 602
Flags: HW
LayerCount: 2
Fore
SplineSet
494 498 m 1,0,1
 494 568 494 568 447 624 c 0,2,3
 394 688 394 688 314 687 c 0,4,5
 252 687 252 687 210.5 660 c 128,-1,6
 169 633 169 633 146.5 592 c 0,7,8
 124 552 124 552 122 504 c 0,9,10
 122 498 122 498 121 492 c 0,11,12
 120 451 120 451 136 415 c 0,13,14
 154 374 154 374 191.5 347 c 128,-1,15
 229 320 229 320 276.5 320 c 128,-1,16
 324 320 324 320 356.5 335 c 0,17,18
 390 350 390 350 416 375 c 0,19,20
 468 425 468 425 494 498 c 1,0,1
64 116 m 1,21,22
 188 40 188 40 291 40 c 0,23,24
 386 40 386 40 440 110 c 0,25,26
 483 164 483 164 500 268 c 0,27,28
 508 321 508 321 508 381 c 0,29,30
 508 406 508 406 507 432 c 1,31,32
 501 414 501 414 483.5 386.5 c 0,33,34
 466 360 466 360 438 334 c 0,35,36
 369 273 369 273 287.5 272.5 c 128,-1,37
 206 272 206 272 152.5 305.5 c 0,38,39
 98 339 98 339 72 390 c 0,40,41
 46 439 46 439 47 495 c 0,42,43
 47 556 47 556 78 609 c 0,44,45
 108 660 108 660 166.5 693.5 c 128,-1,46
 225 727 225 727 299 727 c 128,-1,47
 373 727 373 727 421.5 709.5 c 128,-1,48
 470 692 470 692 504 650 c 0,49,50
 575 562 575 562 575 361 c 0,51,52
 576 166 576 166 492 72 c 0,53,54
 419 -10 419 -10 291 -10 c 0,55,56
 229 -10 229 -10 184 6 c 0,57,58
 126 26 126 26 60 58 c 1,59,-1
 64 116 l 1,21,22
EndSplineSet
EndChar

StartChar: colon
Encoding: 58 58 29
Width: 281
Flags: HW
LayerCount: 2
Fore
SplineSet
106 83 m 1,0,-1
 191 83 l 1,1,-1
 191 -1 l 1,2,-1
 106 -1 l 1,3,-1
 106 83 l 1,0,-1
106 433 m 1,4,-1
 106 517 l 1,5,-1
 191 517 l 1,6,-1
 191 433 l 1,7,-1
 106 433 l 1,4,-1
EndSplineSet
EndChar

StartChar: semicolon
Encoding: 59 59 30
Width: 287
Flags: HW
LayerCount: 2
Fore
SplineSet
193 84 m 1,0,1
 201 26 201 26 201 -17 c 128,-1,2
 201 -60 201 -60 192 -91.5 c 0,3,4
 184 -124 184 -124 168 -144 c 0,5,6
 140 -181 140 -181 92 -187 c 1,7,-1
 92 -152 l 1,8,9
 161 -145 161 -145 165 -52 c 0,10,11
 166 -26 166 -26 166 0 c 1,12,-1
 106 0 l 1,13,-1
 106 84 l 1,14,-1
 193 84 l 1,0,1
106 433 m 1,15,-1
 106 517 l 1,16,-1
 191 517 l 1,17,-1
 191 433 l 1,18,-1
 106 433 l 1,15,-1
EndSplineSet
EndChar

StartChar: less
Encoding: 60 60 31
Width: 621
Flags: HW
LayerCount: 2
Fore
SplineSet
590 458 m 1,0,-1
 101 253 l 1,1,-1
 599 49 l 1,2,-1
 599 -2 l 1,3,4
 510 34 510 34 386 91 c 0,5,6
 148 199 148 199 59 235 c 1,7,-1
 59 274 l 1,8,9
 190 328 190 328 324.5 392.5 c 128,-1,10
 459 457 459 457 590 511 c 1,11,-1
 590 458 l 1,0,-1
EndSplineSet
EndChar

StartChar: equal
Encoding: 61 61 32
Width: 598
Flags: HW
LayerCount: 2
Fore
SplineSet
560 169 m 1,0,-1
 560 128 l 1,1,-1
 59 128 l 1,2,-1
 59 169 l 1,3,-1
 560 169 l 1,0,-1
560 378 m 1,4,-1
 560 335 l 1,5,-1
 59 335 l 1,6,-1
 59 378 l 1,7,-1
 560 378 l 1,4,-1
EndSplineSet
EndChar

StartChar: greater
Encoding: 62 62 33
Width: 618
Flags: HW
LayerCount: 2
Fore
SplineSet
57 511 m 1,0,1
 188 457 188 457 322.5 392.5 c 128,-1,2
 457 328 457 328 588 274 c 1,3,-1
 588 235 l 1,4,5
 499 199 499 199 375 142 c 0,6,7
 137 34 137 34 48 -2 c 1,8,-1
 48 49 l 1,9,-1
 546 253 l 1,10,-1
 57 458 l 1,11,-1
 57 511 l 1,0,1
EndSplineSet
EndChar

StartChar: question
Encoding: 63 63 34
Width: 581
Flags: HW
LayerCount: 2
Fore
SplineSet
73 719 m 1,0,1
 149 751 149 751 268 751 c 0,2,3
 441 752 441 752 495 656 c 0,4,5
 514 622 514 622 514 582.5 c 128,-1,6
 514 543 514 543 504 517.5 c 128,-1,7
 494 492 494 492 478 471 c 0,8,9
 454 439 454 439 406 402.5 c 128,-1,10
 358 366 358 366 322 324 c 128,-1,11
 286 282 286 282 276 223 c 1,12,-1
 236 223 l 1,13,14
 240 293 240 293 278 350 c 0,15,16
 294 374 294 374 314 391.5 c 128,-1,17
 334 409 334 409 351.5 423.5 c 128,-1,18
 369 438 369 438 386 452.5 c 0,19,20
 404 467 404 467 416 484 c 0,21,22
 444 523 444 523 444 576.5 c 128,-1,23
 444 630 444 630 402.5 665 c 128,-1,24
 361 700 361 700 268 700 c 0,25,26
 186 700 186 700 108 666 c 0,27,28
 88 657 88 657 73 650 c 1,29,-1
 73 719 l 1,0,1
219 83 m 1,30,-1
 303 83 l 1,31,-1
 303 -1 l 1,32,-1
 219 -1 l 1,33,-1
 219 83 l 1,30,-1
EndSplineSet
EndChar

StartChar: at
Encoding: 64 64 35
Width: 817
Flags: HW
LayerCount: 2
Fore
SplineSet
506 399 m 1,0,1
 474 440 474 440 440 462 c 0,2,3
 424 472 424 472 409 472 c 0,4,5
 344 472 344 472 344 358 c 0,6,7
 344 315 344 315 362.5 294.5 c 128,-1,8
 381 274 381 274 413 274 c 0,9,10
 438 274 438 274 466 298 c 0,11,12
 493 321 493 321 497 347 c 2,13,-1
 506 399 l 1,0,1
789 38 m 1,14,15
 635 -18 635 -18 436 -18 c 0,16,17
 242 -18 242 -18 141 89 c 0,18,19
 49 187 49 187 49 352 c 0,20,21
 49 359 49 359 49 366 c 1,22,23
 48 542 48 542 158 648 c 0,24,25
 265 752 265 752 435 752 c 0,26,27
 598 752 598 752 698 675 c 0,28,29
 806 591 806 591 806 441 c 0,30,31
 806 348 806 348 765 286 c 0,32,33
 715 210 715 210 613 210 c 1,34,35
 546 210 546 210 508 257 c 0,36,37
 498 269 498 269 494 279 c 1,38,39
 463 223 463 223 394 223 c 0,40,41
 278 223 278 223 278 365 c 0,42,43
 278 472 278 472 344 512 c 0,44,45
 366 526 366 526 387 526 c 128,-1,46
 408 526 408 526 422 522 c 128,-1,47
 436 518 436 518 452 510 c 0,48,49
 487 492 487 492 513 456 c 1,50,51
 515 469 515 469 529 518 c 0,52,53
 530 518 530 518 530.5 517.5 c 128,-1,54
 531 517 531 517 535.5 515.5 c 128,-1,55
 540 514 540 514 549.5 510.5 c 128,-1,56
 559 507 559 507 579 500 c 1,57,58
 573 456 573 456 565.5 405.5 c 128,-1,59
 558 355 558 355 558 313 c 0,60,61
 558 252 558 252 619 252 c 0,62,63
 673 252 673 252 703 310 c 0,64,65
 730 362 730 362 730 437.5 c 128,-1,66
 730 513 730 513 704 561 c 0,67,68
 678 608 678 608 636 640 c 0,69,70
 551 704 551 704 432 704 c 0,71,72
 337 704 337 704 262 662 c 0,73,74
 183 616 183 616 147 508 c 0,75,76
 128 450 128 450 128 364.5 c 128,-1,77
 128 279 128 279 148 220 c 128,-1,78
 168 161 168 161 200 123.5 c 128,-1,79
 232 86 232 86 271 66.5 c 0,80,81
 310 46 310 46 348 38 c 0,82,83
 396 28 396 28 454 28 c 128,-1,84
 512 28 512 28 553.5 35.5 c 128,-1,85
 595 43 595 43 636 56 c 0,86,87
 716 81 716 81 789 123 c 1,88,-1
 789 38 l 1,14,15
EndSplineSet
EndChar

StartChar: A
Encoding: 65 65 36
Width: 651
Flags: HW
LayerCount: 2
Fore
SplineSet
343 682 m 1,0,-1
 201 314 l 1,1,-1
 470 314 l 1,2,-1
 343 682 l 1,0,-1
293 715 m 1,3,-1
 396 715 l 1,4,-1
 647 0 l 1,5,-1
 573 0 l 1,6,-1
 483 272 l 1,7,-1
 191 272 l 1,8,-1
 80 0 l 1,9,-1
 11 0 l 1,10,-1
 293 715 l 1,3,-1
EndSplineSet
EndChar

StartChar: B
Encoding: 66 66 37
Width: 685
Flags: HW
LayerCount: 2
Fore
SplineSet
158 33 m 1,0,-1
 308 26 l 1,1,2
 318 26 318 26 328 26 c 0,3,4
 526 26 526 26 562 128 c 0,5,6
 574 162 574 162 573.5 202 c 128,-1,7
 573 242 573 242 557.5 272.5 c 128,-1,8
 542 303 542 303 514 324 c 0,9,10
 458 367 458 367 362 367 c 2,11,-1
 158 367 l 1,12,-1
 158 33 l 1,0,-1
317 412 m 2,13,14
 419 412 419 412 464 441.5 c 128,-1,15
 509 471 509 471 509 535.5 c 128,-1,16
 509 600 509 600 466.5 635.5 c 128,-1,17
 424 671 424 671 324 671 c 2,18,-1
 158 671 l 1,19,-1
 158 412 l 1,20,-1
 317 412 l 2,13,14
95 -1 m 1,21,-1
 93 714 l 1,22,-1
 323 714 l 2,23,24
 528 714 528 714 571 607 c 0,25,26
 584 575 584 575 584 540.5 c 128,-1,27
 584 506 584 506 573 481.5 c 128,-1,28
 562 457 562 457 542 439 c 0,29,30
 503 403 503 403 439 395 c 1,31,32
 587 371 587 371 635 275 c 0,33,34
 652 241 652 241 652 198 c 128,-1,35
 652 155 652 155 639.5 116.5 c 128,-1,36
 627 78 627 78 595 48 c 0,37,38
 528 -14 528 -14 379 -13 c 0,39,40
 371 -13 371 -13 362 -13 c 1,41,42
 179 -10 179 -10 95 -1 c 1,21,-1
EndSplineSet
EndChar

StartChar: C
Encoding: 67 67 38
Width: 680
Flags: HW
LayerCount: 2
Fore
SplineSet
625 39 m 1,0,1
 535 -21 535 -21 436 -21 c 128,-1,2
 337 -21 337 -21 269 8.5 c 0,3,4
 200 38 200 38 154 89 c 0,5,6
 61 191 61 191 59 354 c 1,7,8
 59 532 59 532 167 634 c 0,9,10
 269 730 269 730 426 731 c 0,11,12
 509 731 509 731 618 698 c 1,13,-1
 618 637 l 1,14,15
 509 689 509 689 426 689 c 0,16,17
 355 689 355 689 282 645 c 0,18,19
 204 598 204 598 165 494 c 0,20,21
 144 438 144 438 141 355 c 1,22,23
 142 207 142 207 210 124 c 0,24,25
 260 62 260 62 341 40 c 0,26,27
 379 30 379 30 426 30 c 1,28,29
 528 30 528 30 625 108 c 1,30,-1
 625 39 l 1,0,1
EndSplineSet
EndChar

StartChar: D
Encoding: 68 68 39
Width: 682
Flags: HW
LayerCount: 2
Fore
SplineSet
273 673 m 0,0,1
 157 673 157 673 157 665 c 2,2,-1
 157 83 l 2,3,4
 157 55 157 55 160 50 c 0,5,6
 164 44 164 44 182 44 c 2,7,-1
 273 44 l 2,8,9
 317 44 317 44 367.5 59 c 128,-1,10
 418 74 418 74 460 110 c 0,11,12
 560 194 560 194 560 355 c 0,13,14
 560 441 560 441 531.5 501.5 c 128,-1,15
 503 562 503 562 460.5 600 c 128,-1,16
 418 638 418 638 367.5 655.5 c 128,-1,17
 317 673 317 673 273 673 c 0,0,1
272 716 m 2,18,19
 372 716 372 716 442 680 c 128,-1,20
 512 644 512 644 556 589.5 c 128,-1,21
 600 535 600 535 620 472 c 128,-1,22
 640 409 640 409 640 355 c 256,23,24
 640 301 640 301 623 238.5 c 128,-1,25
 606 176 606 176 564.5 123.5 c 128,-1,26
 523 71 523 71 452 36 c 128,-1,27
 381 1 381 1 273 1 c 2,28,-1
 92 1 l 1,29,-1
 92 716 l 1,30,-1
 272 716 l 2,18,19
EndSplineSet
EndChar

StartChar: E
Encoding: 69 69 40
Width: 568
Flags: HW
LayerCount: 2
Fore
SplineSet
94 714 m 1,0,-1
 509 714 l 1,1,-1
 509 672 l 1,2,-1
 157 672 l 1,3,-1
 157 385 l 1,4,-1
 418 385 l 1,5,-1
 418 342 l 1,6,-1
 157 342 l 1,7,-1
 157 43 l 1,8,-1
 533 43 l 1,9,-1
 533 0 l 1,10,-1
 94 0 l 1,11,-1
 94 714 l 1,0,-1
EndSplineSet
EndChar

StartChar: F
Encoding: 70 70 41
Width: 579
Flags: HW
LayerCount: 2
Fore
SplineSet
94 714 m 1,0,-1
 556 714 l 1,1,-1
 556 670 l 1,2,-1
 158 670 l 1,3,-1
 158 385 l 1,4,-1
 405 385 l 1,5,-1
 405 335 l 1,6,-1
 158 335 l 1,7,-1
 158 0 l 1,8,-1
 94 0 l 1,9,-1
 94 714 l 1,0,-1
EndSplineSet
EndChar

StartChar: G
Encoding: 71 71 42
Width: 794
Flags: HW
LayerCount: 2
Fore
SplineSet
687 695 m 1,0,-1
 687 628 l 1,1,2
 664 636 664 636 639 646.5 c 128,-1,3
 614 657 614 657 584 666 c 0,4,5
 509 688 509 688 429.5 688 c 128,-1,6
 350 688 350 688 294 662 c 128,-1,7
 238 636 238 636 201 590 c 0,8,9
 128 500 128 500 128 353 c 0,10,11
 128 204 128 204 196 122 c 0,12,13
 248 60 248 60 333 40 c 0,14,15
 376 30 376 30 442 30 c 1,16,17
 586 30 586 30 676 91 c 1,18,-1
 676 301 l 1,19,-1
 742 301 l 1,20,-1
 742 38 l 1,21,22
 568 -20 568 -20 436 -20 c 1,23,24
 432 -20 432 -20 429 -20 c 0,25,26
 232 -20 232 -20 138 84 c 0,27,28
 52 179 52 179 53 359 c 256,29,30
 52 530 52 530 150 630 c 0,31,32
 250 732 250 732 417.5 732 c 128,-1,33
 585 732 585 732 687 695 c 1,0,-1
EndSplineSet
EndChar

StartChar: H
Encoding: 72 72 43
Width: 750
Flags: HW
LayerCount: 2
Fore
SplineSet
617 715 m 1,0,-1
 682 715 l 1,1,-1
 682 0 l 1,2,-1
 617 0 l 1,3,-1
 617 336 l 1,4,-1
 165 336 l 1,5,-1
 165 0 l 1,6,-1
 93 0 l 1,7,-1
 93 715 l 1,8,-1
 165 715 l 1,9,-1
 165 381 l 1,10,-1
 617 381 l 1,11,-1
 617 715 l 1,0,-1
EndSplineSet
EndChar

StartChar: I
Encoding: 73 73 44
Width: 259
Flags: HW
LayerCount: 2
Fore
SplineSet
103 715 m 1,0,-1
 167 715 l 1,1,-1
 167 0 l 1,2,-1
 103 0 l 1,3,-1
 103 715 l 1,0,-1
EndSplineSet
EndChar

StartChar: J
Encoding: 74 74 45
Width: 272
Flags: HW
LayerCount: 2
Fore
SplineSet
183 716 m 1,0,-1
 183 -22 l 2,1,2
 182 -115 182 -115 136 -163 c 0,3,4
 105 -195 105 -195 61 -204 c 1,5,-1
 61 -167 l 1,6,7
 93 -135 93 -135 107 -102.5 c 128,-1,8
 121 -70 121 -70 121 -22 c 2,9,-1
 121 716 l 1,10,-1
 183 716 l 1,0,-1
EndSplineSet
EndChar

StartChar: K
Encoding: 75 75 46
Width: 626
Flags: HW
LayerCount: 2
Fore
SplineSet
502 715 m 1,0,-1
 570 715 l 1,1,-1
 335 436 l 1,2,-1
 624 0 l 1,3,-1
 546 0 l 1,4,-1
 292 384 l 1,5,-1
 151 230 l 1,6,-1
 151 0 l 1,7,-1
 87 0 l 1,8,-1
 87 715 l 1,9,-1
 151 715 l 1,10,-1
 151 307 l 1,11,-1
 502 715 l 1,0,-1
EndSplineSet
EndChar

StartChar: L
Encoding: 76 76 47
Width: 535
Flags: HW
LayerCount: 2
Fore
SplineSet
531 45 m 1,0,-1
 531 0 l 1,1,-1
 94 0 l 1,2,-1
 94 715 l 1,3,-1
 160 715 l 1,4,-1
 160 71 l 2,5,6
 160 51 160 51 162.5 48 c 128,-1,7
 165 45 165 45 182 45 c 2,8,-1
 531 45 l 1,0,-1
EndSplineSet
EndChar

StartChar: M
Encoding: 77 77 48
Width: 920
Flags: HW
LayerCount: 2
Fore
SplineSet
791 675 m 1,0,1
 638 347 638 347 518 84 c 1,2,-1
 444 84 l 1,3,-1
 158 674 l 1,4,-1
 155 0 l 1,5,-1
 92 0 l 1,6,-1
 92 715 l 1,7,-1
 214 715 l 1,8,-1
 456 179 l 2,9,10
 468 154 468 154 480 154 c 0,11,12
 488 154 488 154 496 164 c 0,13,14
 503 172 503 172 566.5 317 c 128,-1,15
 630 462 630 462 655.5 519 c 128,-1,16
 681 576 681 576 696.5 611 c 128,-1,17
 712 646 712 646 722 666 c 0,18,19
 739 703 739 703 743 715 c 1,20,-1
 856 715 l 1,21,-1
 856 0 l 1,22,-1
 792 0 l 1,23,-1
 791 675 l 1,0,1
EndSplineSet
EndChar

StartChar: N
Encoding: 78 78 49
Width: 711
Flags: HW
LayerCount: 2
Fore
SplineSet
91 714 m 1,0,-1
 186 714 l 1,1,-1
 583 76 l 1,2,-1
 583 714 l 1,3,-1
 649 714 l 1,4,-1
 649 0 l 1,5,-1
 574 0 l 1,6,-1
 155 673 l 1,7,-1
 155 0 l 1,8,-1
 91 0 l 1,9,-1
 91 714 l 1,0,-1
EndSplineSet
EndChar

StartChar: O
Encoding: 79 79 50
Width: 824
Flags: HW
LayerCount: 2
Fore
SplineSet
143.5 495 m 128,-1,1
 125 439 125 439 125 355 c 128,-1,2
 125 271 125 271 144 213 c 128,-1,3
 163 155 163 155 192 118.5 c 128,-1,4
 221 82 221 82 256.5 62.5 c 128,-1,5
 292 43 292 43 325 35 c 0,6,7
 366 25 366 25 400 25 c 128,-1,8
 434 25 434 25 461 26.5 c 128,-1,9
 488 28 488 28 522 37.5 c 128,-1,10
 556 47 556 47 593 67 c 128,-1,11
 630 87 630 87 661 124 c 0,12,13
 732 209 732 209 732 357 c 0,14,15
 732 507 732 507 661 592 c 0,16,17
 610 653 610 653 522 676 c 0,18,19
 480 687 480 687 445.5 687 c 128,-1,20
 411 687 411 687 384.5 685.5 c 128,-1,21
 358 684 358 684 324.5 674.5 c 128,-1,22
 291 665 291 665 256 645 c 128,-1,23
 221 625 221 625 191.5 588 c 128,-1,0
 162 551 162 551 143.5 495 c 128,-1,1
424 731 m 1,24,25
 620 728 620 728 709.5 634 c 128,-1,26
 799 540 799 540 799 356 c 0,27,28
 798 91 798 91 596 9 c 0,29,30
 524 -20 524 -20 422.5 -20 c 128,-1,31
 321 -20 321 -20 249.5 7 c 128,-1,32
 178 34 178 34 134 84 c 0,33,34
 50 178 50 178 47 356 c 1,35,36
 47 540 47 540 146 634 c 128,-1,37
 245 728 245 728 424 731 c 1,24,25
EndSplineSet
EndChar

StartChar: P
Encoding: 80 80 51
Width: 616
Flags: HW
LayerCount: 2
Fore
SplineSet
159 347 m 1,0,-1
 341 347 l 2,1,2
 433 348 433 348 482 410 c 0,3,4
 518 456 518 456 518 505 c 0,5,6
 518 613 518 613 428 655 c 0,7,8
 394 671 394 671 341 671 c 2,9,-1
 159 671 l 1,10,-1
 159 347 l 1,0,-1
341 715 m 2,11,12
 472 714 472 714 538 646 c 0,13,14
 594 589 594 589 594 505 c 0,15,16
 594 425 594 425 540 369 c 0,17,18
 474 301 474 301 341 301 c 2,19,-1
 159 301 l 1,20,-1
 159 -1 l 1,21,-1
 95 -1 l 1,22,-1
 95 714 l 1,23,-1
 341 715 l 2,11,12
EndSplineSet
EndChar

StartChar: Q
Encoding: 81 81 52
Width: 821
Flags: HW
LayerCount: 2
Fore
SplineSet
143.5 492 m 128,-1,1
 125 436 125 436 125 352 c 128,-1,2
 125 268 125 268 144 210 c 128,-1,3
 163 152 163 152 192 115.5 c 128,-1,4
 221 79 221 79 256.5 59.5 c 128,-1,5
 292 40 292 40 325 32 c 0,6,7
 366 22 366 22 400 22 c 128,-1,8
 434 22 434 22 461 23.5 c 128,-1,9
 488 25 488 25 522 34.5 c 128,-1,10
 556 44 556 44 593 64 c 128,-1,11
 630 84 630 84 660 121 c 0,12,13
 730 207 730 207 731 354 c 0,14,15
 730 503 730 503 660 589 c 0,16,17
 610 650 610 650 522 673 c 0,18,19
 480 684 480 684 445.5 684 c 128,-1,20
 411 684 411 684 384.5 682.5 c 128,-1,21
 358 681 358 681 324.5 671.5 c 128,-1,22
 291 662 291 662 256 642 c 128,-1,23
 221 622 221 622 191.5 585 c 128,-1,0
 162 548 162 548 143.5 492 c 128,-1,1
424 728 m 1,24,25
 620 725 620 725 709.5 631 c 128,-1,26
 799 537 799 537 799 353 c 0,27,28
 800 104 800 104 610 16 c 0,29,30
 542 -16 542 -16 446 -23 c 1,31,-1
 446 -56 l 2,32,33
 446 -122 446 -122 492 -160 c 0,34,35
 528 -190 528 -190 573 -196 c 1,36,-1
 573 -207 l 1,37,38
 470 -202 470 -202 424 -141 c 0,39,40
 396 -104 396 -104 395 -55 c 2,41,-1
 395 -23 l 1,42,43
 213 -10 213 -10 127 94 c 0,44,45
 49 188 49 188 47 353 c 1,46,47
 47 537 47 537 146 631 c 128,-1,48
 245 725 245 725 424 728 c 1,24,25
EndSplineSet
EndChar

StartChar: R
Encoding: 82 82 53
Width: 662
Flags: HW
LayerCount: 2
Fore
SplineSet
332 397 m 2,0,1
 420 397 420 397 466 444 c 0,2,3
 500 479 500 479 501 535 c 0,4,5
 502 624 502 624 412 658 c 0,6,7
 380 670 380 670 332 671 c 2,8,-1
 155 671 l 1,9,-1
 155 397 l 1,10,-1
 332 397 l 2,0,1
332 715 m 2,11,12
 449 715 449 715 511 666 c 0,13,14
 569 620 569 620 569 544 c 0,15,16
 570 467 570 467 518 419 c 0,17,18
 475 379 475 379 414 372 c 1,19,20
 478 357 478 357 508 295 c 0,21,22
 516 277 516 277 524 257 c 2,23,-1
 627 0 l 1,24,-1
 561 0 l 1,25,26
 516 114 516 114 489 181 c 128,-1,27
 462 248 462 248 456 265 c 0,28,29
 437 315 437 315 413.5 331.5 c 128,-1,30
 390 348 390 348 356 348 c 2,31,-1
 155 348 l 1,32,-1
 155 0 l 1,33,-1
 92 0 l 1,34,-1
 92 715 l 1,35,-1
 332 715 l 2,11,12
EndSplineSet
EndChar

StartChar: S
Encoding: 83 83 54
Width: 588
Flags: HW
LayerCount: 2
Fore
SplineSet
305 731 m 0,0,1
 447 731 447 731 531 689 c 1,2,-1
 531 638 l 1,3,4
 463 669 463 669 423 677 c 0,5,6
 341 688 341 688 316 688 c 1,7,8
 270 688 270 688 239.5 679 c 0,9,10
 210 670 210 670 186 652 c 0,11,12
 136 613 136 613 135 550 c 0,13,14
 135 464 135 464 225 426 c 0,15,16
 254 414 254 414 293.5 402 c 128,-1,17
 333 390 333 390 379 373.5 c 0,18,19
 426 356 426 356 464 330 c 0,20,21
 554 268 554 268 553 170 c 0,22,23
 553 66 553 66 454 16 c 0,24,25
 382 -20 382 -20 288.5 -20 c 128,-1,26
 195 -20 195 -20 138.5 0 c 128,-1,27
 82 20 82 20 56 38 c 1,28,-1
 56 104 l 1,29,30
 122 55 122 55 216 35 c 0,31,32
 248 28 248 28 286 28 c 128,-1,33
 324 28 324 28 359.5 39 c 128,-1,34
 395 50 395 50 421 70 c 0,35,36
 477 112 477 112 477 170 c 0,37,38
 477 221 477 221 455 251 c 0,39,40
 410 311 410 311 295 341 c 1,41,42
 170 376 170 376 118 419 c 0,43,44
 56 470 56 470 56 551 c 0,45,46
 56 626 56 626 120 676 c 0,47,48
 190 731 190 731 305 731 c 0,0,1
EndSplineSet
EndChar

StartChar: T
Encoding: 84 84 55
Width: 616
Flags: HW
LayerCount: 2
Fore
SplineSet
621 673 m 1,0,-1
 354 673 l 1,1,-1
 354 0 l 1,2,-1
 287 0 l 1,3,-1
 287 673 l 1,4,-1
 12 673 l 1,5,-1
 12 716 l 1,6,-1
 621 716 l 1,7,-1
 621 673 l 1,0,-1
EndSplineSet
EndChar

StartChar: U
Encoding: 85 85 56
Width: 717
Flags: HW
LayerCount: 2
Fore
SplineSet
643 715 m 1,0,-1
 643 306 l 2,1,2
 643 220 643 220 634.5 180 c 128,-1,3
 626 140 626 140 610 106 c 128,-1,4
 594 72 594 72 564 46 c 0,5,6
 497 -12 497 -12 369 -13 c 0,7,8
 182 -12 182 -12 123 108 c 0,9,10
 92 172 92 172 88 250 c 0,11,12
 86 286 86 286 87 314 c 2,13,-1
 87 715 l 1,14,-1
 152 715 l 1,15,-1
 152 306 l 2,16,17
 152 156 152 156 217 90 c 0,18,19
 272 34 272 34 369 34 c 0,20,21
 466 34 466 34 518 90 c 0,22,23
 575 152 575 152 579 264 c 0,24,25
 580 290 580 290 580 306 c 2,26,-1
 580 715 l 1,27,-1
 643 715 l 1,0,-1
EndSplineSet
EndChar

StartChar: V
Encoding: 86 86 57
Width: 683
Flags: HW
LayerCount: 2
Fore
SplineSet
379 0 m 1,0,-1
 282 0 l 1,1,-1
 21 715 l 1,2,-1
 91 715 l 1,3,-1
 331 46 l 1,4,-1
 571 715 l 1,5,-1
 650 715 l 1,6,-1
 379 0 l 1,0,-1
EndSplineSet
EndChar

StartChar: W
Encoding: 87 87 58
Width: 1060
Flags: HW
LayerCount: 2
Fore
SplineSet
92 715 m 1,0,-1
 334 49 l 1,1,-1
 506 715 l 1,2,-1
 588 715 l 1,3,-1
 756 47 l 1,4,-1
 993 715 l 1,5,-1
 1069 715 l 1,6,-1
 809 0 l 1,7,-1
 712 0 l 1,8,-1
 547 679 l 1,9,-1
 380 0 l 1,10,-1
 283 0 l 1,11,-1
 18 715 l 1,12,-1
 92 715 l 1,0,-1
EndSplineSet
EndChar

StartChar: X
Encoding: 88 88 59
Width: 683
Flags: HW
LayerCount: 2
Fore
SplineSet
317 368 m 1,0,-1
 48 715 l 1,1,-1
 126 715 l 1,2,-1
 350 417 l 1,3,-1
 576 715 l 1,4,-1
 654 715 l 1,5,-1
 391 368 l 1,6,-1
 669 -1 l 1,7,-1
 600 -1 l 1,8,-1
 350 320 l 1,9,-1
 102 -1 l 1,10,-1
 32 -1 l 1,11,-1
 317 368 l 1,0,-1
EndSplineSet
EndChar

StartChar: Y
Encoding: 89 89 60
Width: 690
Flags: HW
LayerCount: 2
Fore
SplineSet
29 715 m 1,0,-1
 102 715 l 1,1,-1
 352 319 l 1,2,-1
 605 715 l 1,3,-1
 679 715 l 1,4,-1
 390 268 l 1,5,-1
 390 -1 l 1,6,-1
 318 -1 l 1,7,-1
 318 268 l 1,8,-1
 29 715 l 1,0,-1
EndSplineSet
EndChar

StartChar: Z
Encoding: 90 90 61
Width: 655
Flags: HW
LayerCount: 2
Fore
SplineSet
641 50 m 1,0,-1
 641 0 l 1,1,-1
 34 0 l 1,2,-1
 34 67 l 1,3,-1
 582 672 l 1,4,-1
 34 672 l 1,5,-1
 34 715 l 1,6,-1
 641 715 l 1,7,-1
 641 649 l 1,8,-1
 102 50 l 1,9,-1
 641 50 l 1,0,-1
EndSplineSet
EndChar

StartChar: bracketleft
Encoding: 91 91 62
Width: 324
Flags: HW
LayerCount: 2
Fore
SplineSet
323 705 m 1,0,-1
 165 705 l 1,1,-1
 165 -169 l 1,2,-1
 323 -169 l 1,3,-1
 323 -213 l 1,4,-1
 90 -213 l 1,5,-1
 90 750 l 1,6,-1
 323 750 l 1,7,-1
 323 705 l 1,0,-1
EndSplineSet
EndChar

StartChar: backslash
Encoding: 92 92 63
Width: 347
Flags: HW
LayerCount: 2
Fore
SplineSet
6 753 m 1,0,-1
 53 753 l 1,1,-1
 357 -19 l 1,2,-1
 310 -19 l 1,3,-1
 6 753 l 1,0,-1
EndSplineSet
EndChar

StartChar: bracketright
Encoding: 93 93 64
Width: 324
Flags: HW
LayerCount: 2
Fore
SplineSet
247 750 m 1,0,-1
 247 -212 l 1,1,-1
 15 -212 l 1,2,-1
 15 -166 l 1,3,-1
 173 -166 l 1,4,-1
 173 705 l 1,5,-1
 15 705 l 1,6,-1
 15 750 l 1,7,-1
 247 750 l 1,0,-1
EndSplineSet
EndChar

StartChar: asciicircum
Encoding: 94 94 65
Width: 602
Flags: HW
LayerCount: 2
Fore
SplineSet
73 289 m 1,0,-1
 298 710 l 1,1,-1
 298 711 l 1,2,-1
 334 711 l 1,3,4
 369 634 369 634 423 538 c 0,5,6
 519 366 519 366 562 281 c 1,7,-1
 515 281 l 1,8,-1
 316 674 l 1,9,10
 261 557 261 557 217 474 c 0,11,12
 146 340 146 340 124 290 c 1,13,-1
 73 289 l 1,0,-1
EndSplineSet
EndChar

StartChar: underscore
Encoding: 95 95 66
Width: 500
Flags: HW
LayerCount: 2
Fore
SplineSet
511 -120 m 1,0,-1
 511 -139 l 1,1,-1
 10 -139 l 1,2,-1
 10 -120 l 1,3,-1
 511 -120 l 1,0,-1
EndSplineSet
EndChar

StartChar: grave
Encoding: 96 96 67
Width: 222
Flags: HW
LayerCount: 2
Fore
SplineSet
82 751 m 1,0,-1
 132 639 l 1,1,-1
 90 639 l 1,2,-1
 4 751 l 1,3,-1
 82 751 l 1,0,-1
EndSplineSet
EndChar

StartChar: a
Encoding: 97 97 68
Width: 463
Flags: HW
LayerCount: 2
Fore
SplineSet
355 273 m 1,0,1
 294 258 294 258 213 258 c 0,2,3
 195 258 195 258 175.5 256.5 c 0,4,5
 156 254 156 254 140 244 c 0,6,7
 104 219 104 219 104 154 c 128,-1,8
 104 89 104 89 137 62.5 c 128,-1,9
 170 36 170 36 210 36 c 0,10,11
 289 36 289 36 353 98 c 1,12,-1
 355 273 l 1,0,1
72 499 m 1,13,14
 151 533 151 533 243 533 c 0,15,16
 324 534 324 534 368 494 c 0,17,18
 420 446 420 446 420 331 c 2,19,-1
 420 0 l 1,20,-1
 373 0 l 1,21,-1
 340 37 l 1,22,23
 279 4 279 4 224 -4 c 0,24,25
 200 -8 200 -8 169 -7 c 0,26,27
 111 -7 111 -7 74.5 32.5 c 128,-1,28
 38 72 38 72 38 148 c 0,29,30
 38 254 38 254 122 288 c 0,31,32
 152 300 152 300 194.5 300.5 c 128,-1,33
 237 301 237 301 262 301.5 c 0,34,35
 288 302 288 302 304 304 c 0,36,37
 332 308 332 308 353 328 c 1,38,39
 354 430 354 430 328 460 c 0,40,41
 314 476 314 476 292 480.5 c 128,-1,42
 270 485 270 485 237 485 c 0,43,44
 166 485 166 485 89 455 c 1,45,46
 78 487 78 487 72 499 c 1,13,14
EndSplineSet
EndChar

StartChar: b
Encoding: 98 98 69
Width: 514
Flags: HW
LayerCount: 2
Fore
SplineSet
416 275 m 0,0,1
 416 488 416 488 307 488 c 0,2,3
 248 488 248 488 201 440 c 0,4,5
 166 402 166 402 140 336 c 0,6,7
 120 282 120 282 119 241 c 2,8,-1
 119 63 l 1,9,10
 183 29 183 29 246 29 c 128,-1,11
 309 29 309 29 340 52 c 128,-1,12
 371 75 371 75 388 111 c 0,13,14
 416 170 416 170 416 275 c 0,0,1
50 794 m 1,15,-1
 117 794 l 1,16,-1
 117 384 l 1,17,18
 131 438 131 438 181 482 c 0,19,20
 239 533 239 533 309 533 c 0,21,22
 436 534 436 534 472 398 c 0,23,24
 486 348 486 348 485 275 c 0,25,26
 485 125 485 125 426.5 56.5 c 128,-1,27
 368 -12 368 -12 241 -12 c 0,28,29
 143 -12 143 -12 52 25 c 1,30,-1
 50 794 l 1,15,-1
EndSplineSet
EndChar

StartChar: c
Encoding: 99 99 70
Width: 509
Flags: HW
LayerCount: 2
Fore
SplineSet
210 518 m 0,0,1
 260 532 260 532 334 532 c 128,-1,2
 408 532 408 532 488 488 c 1,3,-1
 488 435 l 1,4,5
 446 454 446 454 405.5 470 c 128,-1,6
 365 486 365 486 324.5 486 c 128,-1,7
 284 486 284 486 247 477.5 c 128,-1,8
 210 469 210 469 182 445 c 0,9,10
 120 392 120 392 120 265 c 0,11,12
 120 132 120 132 180 75 c 0,13,14
 228 30 228 30 318 30 c 128,-1,15
 408 30 408 30 497 73 c 1,16,-1
 498 15 l 1,17,18
 452 1 452 1 412.5 -7.5 c 128,-1,19
 373 -16 373 -16 323 -16 c 0,20,21
 188 -16 188 -16 120.5 51.5 c 128,-1,22
 53 119 53 119 53 263 c 0,23,24
 53 476 53 476 210 518 c 0,0,1
EndSplineSet
EndChar

StartChar: d
Encoding: 100 100 71
Width: 538
Flags: HW
LayerCount: 2
Fore
SplineSet
424 448 m 1,0,1
 403 458 403 458 363 470 c 0,2,3
 293 491 293 491 257.5 491 c 128,-1,4
 222 491 222 491 198 477.5 c 128,-1,5
 174 464 174 464 158.5 442.5 c 128,-1,6
 143 421 143 421 135 394.5 c 0,7,8
 128 368 128 368 124 342 c 0,9,10
 120 309 120 309 119.5 269.5 c 128,-1,11
 119 230 119 230 123 190 c 128,-1,12
 127 150 127 150 140.5 115 c 128,-1,13
 154 80 154 80 180.5 56 c 128,-1,14
 207 32 207 32 251 32 c 0,15,16
 341 32 341 32 382 81 c 128,-1,17
 423 130 423 130 423 222 c 2,18,-1
 424 448 l 1,0,1
257 537 m 0,19,20
 329 537 329 537 424 501 c 1,21,-1
 424 793 l 1,22,-1
 491 793 l 1,23,-1
 491 -4 l 1,24,-1
 428 -4 l 1,25,26
 428 2 428 2 426 14 c 0,27,28
 424 33 424 33 424 68 c 1,29,30
 401 33 401 33 357.5 10.5 c 128,-1,31
 314 -12 314 -12 262 -12 c 128,-1,32
 210 -12 210 -12 174 2 c 128,-1,33
 138 16 138 16 111 48 c 0,34,35
 52 118 52 118 52 261 c 0,36,37
 52 402 52 402 114 474 c 0,38,39
 168 537 168 537 257 537 c 0,19,20
EndSplineSet
EndChar

StartChar: e
Encoding: 101 101 72
Width: 521
Flags: HW
LayerCount: 2
Fore
SplineSet
434 306 m 1,0,1
 432 377 432 377 401 431 c 1,2,3
 366 486 366 486 288 486 c 0,4,5
 205 486 205 486 164 430 c 0,6,7
 127 380 127 380 127 305 c 1,8,-1
 434 306 l 1,0,1
485 71 m 1,9,10
 411 -16 411 -16 288 -16 c 0,11,12
 104 -16 104 -16 66 138 c 0,13,14
 54 187 54 187 53 247 c 1,15,16
 53 381 53 381 109.5 456.5 c 128,-1,17
 166 532 166 532 288 532 c 0,18,19
 493 532 493 532 493 268 c 0,20,21
 493 265 493 265 493 263 c 1,22,-1
 119 264 l 1,23,24
 119 211 119 211 123 167.5 c 128,-1,25
 127 124 127 124 144 92 c 0,26,27
 180 25 180 25 288 25 c 0,28,29
 341 25 341 25 387 54 c 0,30,31
 420 75 420 75 441 106 c 1,32,33
 453 97 453 97 485 71 c 1,9,10
EndSplineSet
EndChar

StartChar: f
Encoding: 102 102 73
Width: 322
Flags: HW
LayerCount: 2
Fore
SplineSet
423 697 m 1,0,1
 346 725 346 725 313 727 c 1,2,3
 260 727 260 727 232.5 714.5 c 128,-1,4
 205 702 205 702 192.5 680.5 c 128,-1,5
 180 659 180 659 178.5 629 c 128,-1,6
 177 599 177 599 177 563 c 2,7,-1
 177 518 l 1,8,-1
 306 518 l 1,9,-1
 306 475 l 1,10,-1
 177 475 l 1,11,-1
 177 0 l 1,12,-1
 113 0 l 1,13,-1
 113 475 l 1,14,-1
 27 475 l 1,15,-1
 27 518 l 1,16,-1
 113 518 l 1,17,-1
 113 563 l 2,18,19
 112 684 112 684 164 734 c 0,20,21
 210 778 210 778 312 779 c 0,22,23
 374 779 374 779 422 748 c 1,24,-1
 423 697 l 1,0,1
EndSplineSet
EndChar

StartChar: g
Encoding: 103 103 74
Width: 563
Flags: HW
LayerCount: 2
Fore
SplineSet
515 518 m 1,0,-1
 515 -6 l 2,1,2
 515 -71 515 -71 485 -127 c 0,3,4
 454 -183 454 -183 378 -209 c 0,5,6
 338 -223 338 -223 276 -223 c 0,7,8
 159 -223 159 -223 80 -132 c 1,9,-1
 120 -100 l 1,10,11
 162 -143 162 -143 218 -167 c 0,12,13
 246 -179 246 -179 284.5 -179 c 128,-1,14
 323 -179 323 -179 352 -168.5 c 128,-1,15
 381 -158 381 -158 400 -141.5 c 128,-1,16
 419 -125 419 -125 429 -105 c 0,17,18
 440 -86 440 -86 444 -66 c 0,19,20
 450 -42 450 -42 449 -6 c 2,21,-1
 449 59 l 1,22,23
 406 -2 406 -2 344 -14 c 0,24,25
 322 -18 322 -18 291 -19 c 0,26,27
 164 -19 164 -19 102 67 c 0,28,29
 50 139 50 139 50 263 c 0,30,31
 50 396 50 396 101 462 c 0,32,33
 156 532 156 532 281 533 c 0,34,35
 355 532 355 532 396 510 c 0,36,37
 434 489 434 489 465 442 c 1,38,-1
 470 518 l 1,39,-1
 515 518 l 1,0,-1
134 393.5 m 128,-1,41
 117 348 117 348 117 265 c 128,-1,42
 117 182 117 182 134 135 c 0,43,44
 150 88 150 88 176 64 c 0,45,46
 215 27 215 27 291 27 c 0,47,48
 333 27 333 27 354.5 36 c 128,-1,49
 376 45 376 45 392.5 59.5 c 128,-1,50
 409 74 409 74 422 100 c 0,51,52
 450 157 450 157 450 251.5 c 128,-1,53
 450 346 450 346 434 391 c 128,-1,54
 418 436 418 436 394 457 c 128,-1,55
 370 478 370 478 341.5 482 c 128,-1,56
 313 486 313 486 287.5 486 c 128,-1,57
 262 486 262 486 232 483 c 128,-1,58
 202 480 202 480 176.5 459.5 c 128,-1,40
 151 439 151 439 134 393.5 c 128,-1,41
EndSplineSet
EndChar

StartChar: h
Encoding: 104 104 75
Width: 569
Flags: HW
LayerCount: 2
Fore
SplineSet
442 320 m 2,0,1
 442 398 442 398 410.5 440.5 c 128,-1,2
 379 483 379 483 316 483 c 0,3,4
 248 483 248 483 196.5 437 c 128,-1,5
 145 391 145 391 145 331 c 2,6,-1
 145 0 l 1,7,-1
 79 0 l 1,8,-1
 79 795 l 1,9,-1
 145 795 l 1,10,-1
 145 411 l 1,11,12
 166 458 166 458 226 496 c 0,13,14
 286 533 286 533 346 533 c 0,15,16
 459 532 459 532 494 410 c 0,17,18
 506 368 506 368 506 313 c 2,19,-1
 506 0 l 1,20,-1
 442 0 l 1,21,-1
 442 320 l 2,0,1
EndSplineSet
EndChar

StartChar: i
Encoding: 105 105 76
Width: 229
Flags: HW
LayerCount: 2
Fore
SplineSet
75 711 m 1,0,-1
 75 796 l 1,1,-1
 160 796 l 1,2,-1
 160 711 l 1,3,-1
 75 711 l 1,0,-1
92 518 m 1,4,-1
 160 518 l 1,5,-1
 160 0 l 1,6,-1
 92 0 l 1,7,-1
 92 518 l 1,4,-1
EndSplineSet
EndChar

StartChar: j
Encoding: 106 106 77
Width: 231
Flags: HW
LayerCount: 2
Fore
SplineSet
31 -169 m 1,0,1
 93 -113 93 -113 93 -26 c 2,2,-1
 93 518 l 1,3,-1
 161 518 l 1,4,-1
 161 -16 l 2,5,6
 162 -120 162 -120 112 -172 c 0,7,8
 80 -205 80 -205 30 -214 c 1,9,10
 31 -200 31 -200 31 -190 c 2,11,-1
 31 -169 l 1,0,1
161 711 m 1,12,-1
 77 711 l 1,13,-1
 77 796 l 1,14,-1
 161 796 l 1,15,-1
 161 711 l 1,12,-1
EndSplineSet
EndChar

StartChar: k
Encoding: 107 107 78
Width: 538
Flags: HW
LayerCount: 2
Fore
SplineSet
512 410 m 0,0,1
 512 303 512 303 357 200 c 1,2,-1
 509 0 l 1,3,-1
 430 0 l 1,4,-1
 300 170 l 1,5,-1
 239 143 l 1,6,-1
 239 196 l 1,7,8
 324 232 324 232 366.5 267 c 128,-1,9
 409 302 409 302 430.5 333 c 128,-1,10
 452 364 452 364 452 404 c 128,-1,11
 452 444 452 444 424.5 471.5 c 128,-1,12
 397 499 397 499 360 499 c 128,-1,13
 323 499 323 499 288.5 482 c 0,14,15
 254 464 254 464 224 436 c 0,16,17
 155 370 155 370 154 297 c 1,18,-1
 154 0 l 1,19,-1
 86 0 l 1,20,-1
 86 794 l 1,21,-1
 154 794 l 1,22,-1
 154 411 l 1,23,24
 196 476 196 476 252 513 c 128,-1,25
 308 550 308 550 374 550 c 0,26,27
 436 550 436 550 475 509 c 0,28,29
 512 470 512 470 512 410 c 0,0,1
EndSplineSet
EndChar

StartChar: l
Encoding: 108 108 79
Width: 229
Flags: HW
LayerCount: 2
Fore
SplineSet
92 0 m 1,0,-1
 92 794 l 1,1,-1
 158 794 l 1,2,-1
 158 0 l 1,3,-1
 92 0 l 1,0,-1
EndSplineSet
EndChar

StartChar: m
Encoding: 109 109 80
Width: 789
Flags: HW
LayerCount: 2
Fore
SplineSet
684 330 m 2,0,1
 684 410 684 410 671 436 c 128,-1,2
 658 462 658 462 639.5 473 c 128,-1,3
 621 484 621 484 587 484 c 128,-1,4
 553 484 553 484 525.5 469.5 c 128,-1,5
 498 455 498 455 480 432 c 0,6,7
 445 387 445 387 445 320 c 2,8,-1
 445 0 l 1,9,-1
 377 0 l 1,10,-1
 377 320 l 2,11,12
 377 399 377 399 358.5 441.5 c 128,-1,13
 340 484 340 484 286 484 c 0,14,15
 216 484 216 484 175 422 c 0,16,17
 140 370 140 370 140 303 c 2,18,-1
 140 0 l 1,19,-1
 74 0 l 1,20,-1
 74 517 l 1,21,-1
 133 517 l 1,22,-1
 139 407 l 1,23,24
 159 468 159 468 204.5 500.5 c 128,-1,25
 250 533 250 533 316 533 c 0,26,27
 359 533 359 533 388.5 503.5 c 128,-1,28
 418 474 418 474 436 407 c 1,29,30
 474 494 474 494 556 522 c 0,31,32
 586 532 586 532 622 533 c 0,33,34
 685 533 685 533 715 483.5 c 128,-1,35
 745 434 745 434 745 323 c 1,36,-1
 748 0 l 1,37,-1
 684 0 l 1,38,-1
 684 330 l 2,0,1
EndSplineSet
EndChar

StartChar: n
Encoding: 110 110 81
Width: 562
Flags: HW
LayerCount: 2
Fore
SplineSet
445 320 m 2,0,1
 445 398 445 398 413.5 440.5 c 128,-1,2
 382 483 382 483 319 483 c 0,3,4
 251 483 251 483 199.5 437 c 128,-1,5
 148 391 148 391 148 331 c 2,6,-1
 148 0 l 1,7,-1
 82 0 l 1,8,-1
 82 518 l 1,9,-1
 141 518 l 1,10,-1
 147 415 l 1,11,12
 166 462 166 462 228 498 c 0,13,14
 287 534 287 534 353.5 533.5 c 128,-1,15
 420 533 420 533 464.5 479 c 128,-1,16
 509 425 509 425 509 313 c 2,17,-1
 509 0 l 1,18,-1
 445 0 l 1,19,-1
 445 320 l 2,0,1
EndSplineSet
EndChar

StartChar: o
Encoding: 111 111 82
Width: 563
Flags: HW
LayerCount: 2
Fore
SplineSet
134 393 m 128,-1,1
 118 347 118 347 118 263 c 128,-1,2
 118 179 118 179 135 132.5 c 128,-1,3
 152 86 152 86 178 63 c 128,-1,4
 204 40 204 40 235 34.5 c 128,-1,5
 266 29 266 29 291 29 c 128,-1,6
 316 29 316 29 343.5 33 c 0,7,8
 372 36 372 36 396 58 c 0,9,10
 454 109 454 109 454 261 c 0,11,12
 454 410 454 410 394 458 c 0,13,14
 368 479 368 479 338 483 c 128,-1,15
 308 487 308 487 282.5 487 c 128,-1,16
 257 487 257 487 228 484 c 128,-1,17
 199 481 199 481 174.5 460 c 128,-1,0
 150 439 150 439 134 393 c 128,-1,1
286 533 m 0,18,19
 354 533 354 533 402 511.5 c 128,-1,20
 450 490 450 490 478 453 c 0,21,22
 529 386 529 386 529 261 c 0,23,24
 529 118 529 118 480 54 c 0,25,26
 425 -17 425 -17 294 -17 c 257,27,28
 166 -18 166 -18 103 66 c 0,29,30
 49 138 49 138 49 261 c 0,31,32
 48 398 48 398 100 462 c 0,33,34
 156 532 156 532 286 533 c 0,18,19
EndSplineSet
EndChar

StartChar: p
Encoding: 112 112 83
Width: 544
Flags: HW
LayerCount: 2
Fore
SplineSet
387 469 m 128,-1,1
 365 490 365 490 323 490 c 128,-1,2
 281 490 281 490 246.5 470 c 128,-1,3
 212 450 212 450 189 420 c 0,4,5
 143 360 143 360 143 294 c 2,6,-1
 143 71 l 1,7,8
 176 54 176 54 201.5 47.5 c 128,-1,9
 227 41 227 41 274 41 c 128,-1,10
 321 41 321 41 355 60.5 c 0,11,12
 390 80 390 80 408 111 c 0,13,14
 438 162 438 162 438 260 c 256,15,16
 438 364 438 364 423.5 406 c 128,-1,0
 409 448 409 448 387 469 c 128,-1,1
258 -8 m 0,17,18
 216 -8 216 -8 142 11 c 1,19,-1
 142 -213 l 1,20,-1
 78 -213 l 1,21,-1
 78 517 l 1,22,-1
 130 517 l 1,23,-1
 142 397 l 1,24,25
 145 411 145 411 160 434 c 0,26,27
 175 458 175 458 199 480 c 0,28,29
 257 534 257 534 328 534 c 0,30,31
 465 534 465 534 493 374 c 0,32,33
 502 323 502 323 502 260 c 0,34,35
 502 119 502 119 444.5 55.5 c 128,-1,36
 387 -8 387 -8 258 -8 c 0,17,18
EndSplineSet
EndChar

StartChar: q
Encoding: 113 113 84
Width: 540
Flags: HW
LayerCount: 2
Fore
SplineSet
412 450 m 1,0,1
 339 489 339 489 280.5 489 c 128,-1,2
 222 489 222 489 191 468 c 128,-1,3
 160 447 160 447 144 414 c 0,4,5
 116 359 116 359 116 261 c 256,6,7
 116 161 116 161 130.5 117 c 128,-1,8
 145 73 145 73 167 52 c 128,-1,9
 189 31 189 31 231 31 c 128,-1,10
 273 31 273 31 307.5 51 c 128,-1,11
 342 71 342 71 366 101 c 0,12,13
 412 160 412 160 412 227 c 2,14,-1
 412 450 l 1,0,1
412 109 m 1,15,16
 333 -12 333 -12 227 -12 c 0,17,18
 90 -12 90 -12 62 148 c 0,19,20
 53 198 53 198 53 261 c 0,21,22
 53 402 53 402 110.5 465.5 c 128,-1,23
 168 529 168 529 296 529 c 0,24,25
 389 529 389 529 477 485 c 1,26,-1
 477 -211 l 1,27,-1
 412 -211 l 1,28,-1
 412 109 l 1,15,16
EndSplineSet
EndChar

StartChar: r
Encoding: 114 114 85
Width: 367
Flags: HW
LayerCount: 2
Fore
SplineSet
368 464 m 1,0,1
 316 480 316 480 291.5 480 c 128,-1,2
 267 480 267 480 241 468 c 128,-1,3
 215 456 215 456 194 429 c 0,4,5
 147 369 147 369 147 248 c 2,6,-1
 147 0 l 1,7,-1
 78 0 l 1,8,-1
 78 517 l 1,9,-1
 133 517 l 1,10,-1
 147 403 l 1,11,12
 171 465 171 465 192 488 c 0,13,14
 233 532 233 532 292 532 c 256,15,16
 340 532 340 532 372 519 c 1,17,-1
 368 464 l 1,0,1
EndSplineSet
EndChar

StartChar: s
Encoding: 115 115 86
Width: 472
Flags: HW
LayerCount: 2
Fore
SplineSet
249 35 m 0,0,1
 384 35 384 35 384 138 c 0,2,3
 384 202 384 202 269 236 c 0,4,5
 235 246 235 246 196 257 c 128,-1,6
 157 268 157 268 129.5 282 c 128,-1,7
 102 296 102 296 86 314 c 0,8,9
 56 345 56 345 56 399 c 0,10,11
 56 480 56 480 144 514 c 0,12,13
 179 528 179 528 224 528 c 128,-1,14
 269 528 269 528 298 523 c 128,-1,15
 327 518 327 518 351 510 c 0,16,17
 377 502 377 502 427 481 c 1,18,19
 427 470 427 470 427.5 456.5 c 128,-1,20
 428 443 428 443 428 433 c 1,21,22
 379 454 379 454 332.5 470 c 128,-1,23
 286 486 286 486 250.5 486 c 128,-1,24
 215 486 215 486 195.5 483 c 128,-1,25
 176 480 176 480 161 470 c 0,26,27
 127 448 127 448 127 397 c 0,28,29
 128 352 128 352 156 332 c 0,30,31
 178 317 178 317 244 299 c 1,32,33
 350 273 350 273 402 236 c 128,-1,34
 454 199 454 199 454 138 c 0,35,36
 454 68 454 68 397 26 c 0,37,38
 341 -14 341 -14 249 -15 c 0,39,40
 131 -15 131 -15 44 43 c 1,41,42
 44 60 44 60 44.5 75.5 c 128,-1,43
 45 91 45 91 45 108 c 1,44,45
 91 81 91 81 142 58 c 128,-1,46
 193 35 193 35 249 35 c 0,0,1
EndSplineSet
EndChar

StartChar: t
Encoding: 116 116 87
Width: 344
Flags: HW
LayerCount: 2
Fore
SplineSet
323 3 m 1,0,1
 257 -12 257 -12 229 -12 c 128,-1,2
 201 -12 201 -12 183 -7.5 c 0,3,4
 164 -3 164 -3 152 10 c 0,5,6
 126 37 126 37 127 104 c 2,7,-1
 127 475 l 1,8,-1
 25 475 l 1,9,-1
 25 518 l 1,10,-1
 126 518 l 1,11,-1
 146 671 l 1,12,-1
 191 671 l 1,13,-1
 191 518 l 1,14,-1
 325 518 l 1,15,-1
 325 475 l 1,16,-1
 191 475 l 1,17,-1
 191 139 l 2,18,19
 191 71 191 71 199.5 57.5 c 128,-1,20
 208 44 208 44 219.5 40.5 c 128,-1,21
 231 37 231 37 261 37 c 128,-1,22
 291 37 291 37 323 53 c 1,23,-1
 323 3 l 1,0,1
EndSplineSet
EndChar

StartChar: u
Encoding: 117 117 88
Width: 574
Flags: HW
LayerCount: 2
Fore
SplineSet
146 188 m 2,0,1
 146 111 146 111 169 69.5 c 128,-1,2
 192 28 192 28 258 28 c 0,3,4
 330 28 330 28 385 75 c 0,5,6
 445 126 445 126 445 204 c 2,7,-1
 445 518 l 1,8,-1
 510 518 l 1,9,-1
 510 0 l 1,10,-1
 450 0 l 1,11,-1
 445 108 l 1,12,13
 422 48 422 48 369 15.5 c 128,-1,14
 316 -17 316 -17 242 -17 c 0,15,16
 127 -17 127 -17 91 96 c 0,17,18
 78 137 78 137 78 197 c 2,19,-1
 78 518 l 1,20,-1
 146 518 l 1,21,-1
 146 188 l 2,0,1
EndSplineSet
EndChar

StartChar: v
Encoding: 118 118 89
Width: 548
Flags: HW
LayerCount: 2
Fore
SplineSet
102 518 m 1,0,-1
 281 59 l 1,1,2
 290 78 l 2,3,4
 320 147 320 147 340 196 c 128,-1,5
 360 245 360 245 378.5 288 c 128,-1,6
 397 331 397 331 414 372 c 0,7,8
 430 414 430 414 444 446 c 0,9,10
 474 519 474 519 473 518 c 2,11,-1
 540 518 l 1,12,-1
 314 0 l 1,13,-1
 251 0 l 1,14,-1
 33 518 l 1,15,-1
 102 518 l 1,0,-1
EndSplineSet
EndChar

StartChar: w
Encoding: 119 119 90
Width: 787
Flags: HW
LayerCount: 2
Fore
SplineSet
90 518 m 1,0,-1
 216 50 l 1,1,2
 230 84 l 2,3,4
 244 118 244 118 263 170.5 c 128,-1,5
 282 223 282 223 305 283.5 c 128,-1,6
 328 344 328 344 347.5 396 c 128,-1,7
 367 448 367 448 380 483 c 2,8,-1
 393 518 l 1,9,-1
 447 518 l 1,10,-1
 610 49 l 1,11,-1
 720 518 l 1,12,-1
 784 518 l 1,13,-1
 654 0 l 1,14,-1
 572 0 l 1,15,-1
 420 477 l 1,16,-1
 250 0 l 1,17,-1
 173 0 l 1,18,-1
 27 518 l 1,19,-1
 90 518 l 1,0,-1
EndSplineSet
EndChar

StartChar: x
Encoding: 120 120 91
Width: 511
Flags: HW
LayerCount: 2
Fore
SplineSet
96 1 m 1,0,-1
 25 1 l 1,1,-1
 226 271 l 1,2,-1
 46 518 l 1,3,-1
 124 518 l 1,4,-1
 261 320 l 1,5,-1
 402 518 l 1,6,-1
 479 518 l 1,7,-1
 300 271 l 1,8,-1
 498 1 l 1,9,-1
 430 1 l 1,10,-1
 262 223 l 1,11,-1
 96 1 l 1,0,-1
EndSplineSet
EndChar

StartChar: y
Encoding: 121 121 92
Width: 535
Flags: HW
LayerCount: 2
Fore
SplineSet
30 518 m 1,0,-1
 98 518 l 1,1,-1
 291 0 l 1,2,-1
 459 518 l 1,3,-1
 527 518 l 1,4,-1
 266 -212 l 1,5,-1
 208 -212 l 1,6,-1
 257 -52 l 1,7,-1
 30 518 l 1,0,-1
EndSplineSet
EndChar

StartChar: z
Encoding: 122 122 93
Width: 458
Flags: HW
LayerCount: 2
Fore
SplineSet
439 53 m 1,0,-1
 439 0 l 1,1,-1
 37 0 l 1,2,-1
 37 53 l 1,3,-1
 370 474 l 1,4,-1
 37 474 l 1,5,-1
 37 518 l 1,6,-1
 447 518 l 1,7,-1
 447 474 l 1,8,-1
 109 53 l 1,9,-1
 439 53 l 1,0,-1
EndSplineSet
EndChar

StartChar: braceleft
Encoding: 123 123 94
Width: 447
Flags: HW
LayerCount: 2
Fore
SplineSet
430 -213 m 1,0,-1
 362 -213 l 2,1,2
 218 -213 218 -213 170 -103 c 0,3,4
 152 -63 152 -63 153 -3 c 2,5,-1
 153 150 l 2,6,7
 153 213 153 213 91 238 c 2,8,-1
 66 248 l 1,9,-1
 66 294 l 1,10,11
 98 307 98 307 124 330.5 c 128,-1,12
 150 354 150 354 153 396 c 1,13,-1
 153 551 l 2,14,15
 154 655 154 655 218 707 c 0,16,17
 275 753 275 753 362 753 c 2,18,-1
 430 753 l 1,19,-1
 430 706 l 1,20,-1
 372 706 l 2,21,22
 319 706 319 706 290 694 c 128,-1,23
 261 682 261 682 241.5 660 c 128,-1,24
 222 638 222 638 222 597 c 2,25,-1
 222 397 l 2,26,27
 222 336 222 336 188 304 c 0,28,29
 176 292 176 292 159 290 c 1,30,-1
 159 252 l 1,31,32
 194 245 194 245 208 214.5 c 128,-1,33
 222 184 222 184 222 150 c 2,34,-1
 222 -60 l 2,35,36
 222 -130 222 -130 286 -155 c 0,37,38
 317 -167 317 -167 372 -167 c 2,39,-1
 430 -167 l 1,40,-1
 430 -213 l 1,0,-1
EndSplineSet
EndChar

StartChar: bar
Encoding: 124 124 95
Width: 229
Flags: HW
LayerCount: 2
Fore
SplineSet
100 809 m 1,0,-1
 147 809 l 1,1,-1
 147 -234 l 1,2,-1
 100 -234 l 1,3,-1
 100 809 l 1,0,-1
EndSplineSet
EndChar

StartChar: braceright
Encoding: 125 125 96
Width: 444
Flags: HW
LayerCount: 2
Fore
SplineSet
315 397 m 2,0,1
 315 323 315 323 402 294 c 1,2,-1
 402 247 l 1,3,4
 346 225 346 225 324 183 c 0,5,6
 316 168 316 168 315 150 c 1,7,-1
 315 -3 l 2,8,9
 315 -114 315 -114 251 -168 c 0,10,11
 197 -214 197 -214 105 -213 c 2,12,-1
 37 -213 l 1,13,-1
 37 -167 l 1,14,-1
 95 -167 l 2,15,16
 152 -167 152 -167 180 -156 c 128,-1,17
 208 -145 208 -145 227 -123.5 c 128,-1,18
 246 -102 246 -102 246 -60 c 2,19,-1
 246 150 l 2,20,21
 246 185 246 185 260 214.5 c 128,-1,22
 274 244 274 244 309 251 c 1,23,-1
 309 289 l 1,24,25
 278 294 278 294 260 330 c 0,26,27
 246 358 246 358 246 397 c 2,28,-1
 246 597 l 2,29,30
 246 666 246 666 182 692 c 0,31,32
 149 706 149 706 95 706 c 2,33,-1
 37 706 l 1,34,-1
 37 753 l 1,35,-1
 105 753 l 2,36,37
 248 752 248 752 298 644 c 0,38,39
 316 606 316 606 315 551 c 2,40,-1
 315 397 l 2,0,1
EndSplineSet
EndChar

StartChar: asciitilde
Encoding: 126 126 97
Width: 600
Flags: HW
LayerCount: 2
Fore
SplineSet
518 217 m 1,0,1
 450 189 450 189 416 189 c 128,-1,2
 382 189 382 189 358 193 c 0,3,4
 334 196 334 196 312 202 c 0,5,6
 259 216 259 216 215 216 c 128,-1,7
 171 216 171 216 108 197 c 1,8,-1
 106 237 l 1,9,10
 134 250 134 250 158 259 c 128,-1,11
 182 268 182 268 213.5 268 c 128,-1,12
 245 268 245 268 267.5 263.5 c 128,-1,13
 290 259 290 259 311 254 c 0,14,15
 370 240 370 240 419.5 240 c 128,-1,16
 469 240 469 240 518 262 c 1,17,-1
 518 217 l 1,0,1
EndSplineSet
EndChar

StartChar: exclamdown
Encoding: 161 161 98
Width: 264
Flags: HW
LayerCount: 2
Fore
SplineSet
180 431 m 1,0,-1
 96 431 l 1,1,-1
 96 515 l 1,2,-1
 180 515 l 1,3,-1
 180 431 l 1,0,-1
131 290 m 1,4,-1
 152 290 l 1,5,-1
 177 -4 l 1,6,-1
 177 -217 l 1,7,-1
 106 -217 l 1,8,-1
 106 -4 l 1,9,-1
 131 290 l 1,4,-1
EndSplineSet
EndChar

StartChar: cent
Encoding: 162 162 99
Width: 509
Flags: HW
LayerCount: 2
Fore
SplineSet
321 28 m 1,0,1
 424 38 424 38 497 73 c 1,2,-1
 497 36 l 2,3,4
 497 22 497 22 498 14 c 1,5,6
 422 -8 422 -8 387.5 -11.5 c 128,-1,7
 353 -15 353 -15 321 -16 c 1,8,-1
 321 -124 l 1,9,-1
 288 -124 l 1,10,-1
 288 -14 l 1,11,12
 174 -14 174 -14 112 62 c 0,13,14
 52 136 52 136 52.5 265 c 128,-1,15
 53 394 53 394 116.5 461.5 c 128,-1,16
 180 529 180 529 288 529 c 1,17,-1
 288 604 l 1,18,-1
 321 604 l 1,19,-1
 321 529 l 1,20,21
 412 521 412 521 488 492 c 1,22,23
 486 478 486 478 484 467.5 c 128,-1,24
 482 457 482 457 480 445 c 1,25,26
 447 459 447 459 410.5 472 c 128,-1,27
 374 485 374 485 321 490 c 1,28,-1
 321 28 l 1,0,1
120 264 m 2,29,30
 120 157 120 157 167 91 c 0,31,32
 212 27 212 27 288 27 c 1,33,-1
 288 490 l 1,34,35
 224 490 224 490 174 429 c 0,36,37
 120 364 120 364 120 265 c 2,38,-1
 120 264 l 2,29,30
EndSplineSet
EndChar

StartChar: sterling
Encoding: 163 163 100
Width: 585
Flags: HW
LayerCount: 2
Fore
SplineSet
334 42 m 1,0,1
 527 42 527 42 539 198 c 1,2,3
 539 282 539 282 487 334 c 1,4,-1
 513 362 l 1,5,6
 553 323 553 323 564.5 280 c 128,-1,7
 576 237 576 237 576 190.5 c 128,-1,8
 576 144 576 144 556.5 106 c 0,9,10
 536 68 536 68 504 44 c 0,11,12
 446 0 446 0 357 0 c 0,13,14
 349 0 349 0 340 0 c 1,15,-1
 49 0 l 1,16,-1
 49 43 l 1,17,18
 160 59 160 59 160 205 c 2,19,-1
 160 360 l 1,20,-1
 111 360 l 1,21,-1
 111 405 l 1,22,-1
 160 405 l 1,23,-1
 160 579 l 2,24,25
 160 662 160 662 220 709 c 0,26,27
 271 749 271 749 344.5 749 c 128,-1,28
 418 749 418 749 463 723 c 1,29,-1
 463 680 l 1,30,31
 410 705 410 705 365 705 c 128,-1,32
 320 705 320 705 296 692.5 c 128,-1,33
 272 680 272 680 259 659 c 0,34,35
 238 625 238 625 238 556 c 2,36,-1
 238 405 l 1,37,-1
 351 405 l 1,38,-1
 351 360 l 1,39,-1
 238 360 l 1,40,-1
 238 205 l 2,41,42
 238 109 238 109 189 67 c 0,43,44
 174 54 174 54 157 44 c 1,45,-1
 334 42 l 1,0,1
EndSplineSet
EndChar

StartChar: yen
Encoding: 165 165 101
Width: 690
Flags: HW
LayerCount: 2
Fore
SplineSet
352 328 m 1,0,1
 449 482 449 482 608 731 c 1,2,-1
 692 731 l 1,3,-1
 427 325 l 1,4,-1
 601 325 l 1,5,-1
 601 284 l 1,6,-1
 395 284 l 1,7,-1
 395 115 l 1,8,-1
 601 115 l 1,9,-1
 601 75 l 1,10,-1
 395 75 l 1,11,-1
 395 0 l 1,12,-1
 321 0 l 1,13,-1
 321 75 l 1,14,-1
 118 75 l 1,15,-1
 118 115 l 1,16,-1
 321 115 l 1,17,-1
 321 284 l 1,18,-1
 118 284 l 1,19,-1
 118 325 l 1,20,-1
 289 325 l 1,21,-1
 24 731 l 1,22,-1
 107 731 l 1,23,-1
 352 328 l 1,0,1
EndSplineSet
EndChar

StartChar: section
Encoding: 167 167 102
Width: 556
Flags: HW
LayerCount: 2
Fore
SplineSet
300 745 m 0,0,1
 401 745 401 745 493 699 c 1,2,-1
 493 650 l 1,3,4
 433 679 433 679 380.5 690.5 c 128,-1,5
 328 702 328 702 304 702 c 128,-1,6
 280 702 280 702 260 699 c 128,-1,7
 240 696 240 696 224 687 c 0,8,9
 190 667 190 667 190 614 c 0,10,11
 190 495 190 495 362 459 c 0,12,13
 438 442 438 442 474 404 c 0,14,15
 520 355 520 355 520 267 c 0,16,17
 520 208 520 208 487 160 c 0,18,19
 446 99 446 99 365 84 c 1,20,21
 421 63 421 63 442 40 c 0,22,23
 486 -6 486 -6 486 -62 c 0,24,25
 486 -134 486 -134 429 -174 c 0,26,27
 374 -213 374 -213 281 -213 c 128,-1,28
 188 -213 188 -213 108 -172 c 0,29,30
 88 -162 88 -162 77 -156 c 1,31,-1
 77 -89 l 1,32,33
 192 -163 192 -163 281 -163 c 0,34,35
 346 -163 346 -163 372 -148 c 128,-1,36
 398 -133 398 -133 408.5 -113.5 c 128,-1,37
 419 -94 419 -94 419 -66 c 128,-1,38
 419 -38 419 -38 403.5 -14 c 128,-1,39
 388 10 388 10 362 29 c 0,40,41
 305 71 305 71 230 71 c 0,42,43
 146 72 146 72 99 128 c 0,44,45
 56 180 56 180 56 267 c 0,46,47
 56 364 56 364 132 426 c 0,48,49
 162 450 162 450 207 466 c 1,50,51
 161 494 161 494 141 527.5 c 128,-1,52
 121 561 121 561 121 619 c 0,53,54
 121 700 121 700 208 732 c 0,55,56
 243 744 243 744 300 745 c 0,0,1
235 419 m 1,57,58
 192 418 192 418 158 378 c 0,59,60
 124 337 124 337 124 288 c 128,-1,61
 124 239 124 239 129 206 c 128,-1,62
 134 173 134 173 153.5 152.5 c 128,-1,63
 173 132 173 132 211 123.5 c 128,-1,64
 249 115 249 115 295 115 c 128,-1,65
 341 115 341 115 365.5 125.5 c 128,-1,66
 390 136 390 136 408 156 c 0,67,68
 450 201 450 201 450 260 c 128,-1,69
 450 319 450 319 436.5 349 c 128,-1,70
 423 379 423 379 396 394 c 128,-1,71
 369 409 369 409 329 413 c 128,-1,72
 289 417 289 417 235 419 c 1,57,58
EndSplineSet
EndChar

StartChar: dieresis
Encoding: 168 168 103
Width: 222
Flags: HW
LayerCount: 2
Fore
SplineSet
254 707 m 1,0,-1
 170 707 l 1,1,-1
 170 609 l 1,2,-1
 254 609 l 1,3,-1
 254 707 l 1,0,-1
56 707 m 1,4,-1
 56 609 l 1,5,-1
 -27 609 l 1,6,-1
 -27 707 l 1,7,-1
 56 707 l 1,4,-1
254 707 m 1,8,-1
 254 609 l 1,9,-1
 170 609 l 1,10,-1
 170 707 l 1,11,-1
 254 707 l 1,8,-1
56 707 m 1,12,-1
 -27 707 l 1,13,-1
 -27 609 l 1,14,-1
 56 609 l 1,15,-1
 56 707 l 1,12,-1
EndSplineSet
EndChar

StartChar: ordfeminine
Encoding: 170 170 104
Width: 277
Flags: HW
LayerCount: 2
Fore
SplineSet
194 573 m 1,0,1
 175 565 175 565 145 565 c 128,-1,2
 115 565 115 565 105 564.5 c 0,3,4
 94 564 94 564 86 558 c 0,5,6
 68 546 68 546 68 513 c 128,-1,7
 68 480 68 480 85 466.5 c 128,-1,8
 102 453 102 453 130.5 453 c 128,-1,9
 159 453 159 453 194 484 c 1,10,-1
 194 573 l 1,0,1
50 691 m 1,11,12
 90 705 90 705 123.5 705 c 128,-1,13
 157 705 157 705 173 701.5 c 0,14,15
 190 698 190 698 202 686 c 0,16,17
 228 662 228 662 228 602 c 2,18,-1
 228 434 l 1,19,-1
 203 434 l 1,20,-1
 191 457 l 1,21,22
 169 431 169 431 122 431 c 0,23,24
 34 431 34 431 34 510 c 0,25,26
 34 544 34 544 48 559 c 0,27,28
 73 587 73 587 111.5 587 c 128,-1,29
 150 587 150 587 166 588 c 128,-1,30
 182 589 182 589 194 600 c 1,31,32
 194 656 194 656 184.5 666 c 128,-1,33
 175 676 175 676 163.5 678 c 128,-1,34
 152 680 152 680 121.5 680 c 128,-1,35
 91 680 91 680 60 666 c 1,36,-1
 50 691 l 1,11,12
EndSplineSet
EndChar

StartChar: guillemotleft
Encoding: 171 171 105
Width: 562
Flags: HW
LayerCount: 2
Fore
SplineSet
65 282 m 256,0,1
 65 294 65 294 77 302 c 2,2,-1
 247 423 l 1,3,4
 247 409 247 409 246 396 c 128,-1,5
 245 383 245 383 235 378 c 1,6,-1
 100 282 l 1,7,8
 139 252 139 252 182.5 222 c 128,-1,9
 226 192 226 192 235 186 c 0,10,11
 247 178 247 178 247 140 c 1,12,-1
 78 262 l 1,13,14
 65 270 65 270 65 282 c 256,0,1
315 282 m 256,15,16
 315 294 315 294 327 302 c 2,17,-1
 497 423 l 1,18,19
 497 409 497 409 496 396 c 128,-1,20
 495 383 495 383 485 378 c 1,21,-1
 350 282 l 1,22,23
 389 252 389 252 432.5 222 c 128,-1,24
 476 192 476 192 485 186 c 0,25,26
 497 178 497 178 497 140 c 1,27,-1
 328 262 l 1,28,29
 315 270 315 270 315 282 c 256,15,16
EndSplineSet
EndChar

StartChar: degree
Encoding: 176 176 106
Width: 400
Flags: HW
LayerCount: 2
Fore
SplineSet
117 640 m 0,0,1
 104 618 104 618 104 576 c 128,-1,2
 104 534 104 534 117.5 511.5 c 128,-1,3
 131 489 131 489 148 479 c 0,4,5
 168 467 168 467 203 467 c 0,6,7
 264 468 264 468 293 514 c 0,8,9
 307 536 307 536 307 577.5 c 128,-1,10
 307 619 307 619 293 641 c 0,11,12
 279 664 279 664 261 674 c 0,13,14
 238 688 238 688 203 687 c 256,15,16
 144 686 144 686 117 640 c 0,0,1
203 437 m 256,17,18
 64 437 64 437 64 577 c 0,19,20
 64 647 64 647 101 682.5 c 128,-1,21
 138 718 138 718 203 719 c 1,22,23
 278 718 278 718 311 682 c 128,-1,24
 344 646 344 646 344 577 c 0,25,26
 344 478 344 478 268 448 c 0,27,28
 241 438 241 438 203 437 c 256,17,18
EndSplineSet
EndChar

StartChar: twosuperior
Encoding: 178 178 107
Width: 348
Flags: HW
LayerCount: 2
Fore
SplineSet
59 681 m 1,0,1
 106 726 106 726 175 726 c 0,2,3
 272 726 272 726 298 660 c 0,4,5
 306 640 306 640 306 608.5 c 128,-1,6
 306 577 306 577 281.5 543.5 c 128,-1,7
 257 510 257 510 204 484 c 0,8,9
 139 452 139 452 116 425 c 0,10,11
 72 376 72 376 72 311 c 1,12,-1
 320 311 l 1,13,-1
 320 300 l 1,14,-1
 39 300 l 1,15,16
 49 435 49 435 197 502 c 1,17,18
 242 525 242 525 263 555.5 c 128,-1,19
 284 586 284 586 284 611.5 c 128,-1,20
 284 637 284 637 278.5 654.5 c 0,21,22
 272 672 272 672 260 686 c 0,23,24
 233 716 233 716 173.5 715.5 c 128,-1,25
 114 715 114 715 77 671 c 1,26,27
 63 678 63 678 59 681 c 1,0,1
EndSplineSet
EndChar

StartChar: threesuperior
Encoding: 179 179 108
Width: 341
Flags: HW
LayerCount: 2
Fore
SplineSet
170 533 m 2,0,1
 278 533 278 533 278 626 c 0,2,3
 278 684 278 684 222 706 c 0,4,5
 202 714 202 714 174 713 c 0,6,7
 119 713 119 713 35 676 c 1,8,-1
 35 690 l 1,9,10
 59 702 59 702 93.5 714.5 c 128,-1,11
 128 727 128 727 163.5 727 c 128,-1,12
 199 727 199 727 223 722 c 0,13,14
 248 717 248 717 266 705 c 0,15,16
 306 679 306 679 306 630 c 128,-1,17
 306 581 306 581 281 558 c 128,-1,18
 256 535 256 535 224 526 c 1,19,20
 270 517 270 517 291 502 c 0,21,22
 335 470 335 470 335 418 c 0,23,24
 334 367 334 367 288 332 c 0,25,26
 239 295 239 295 154.5 295 c 128,-1,27
 70 295 70 295 20 313 c 1,28,-1
 20 332 l 1,29,-1
 21 332 l 1,30,31
 92 312 92 312 158 312 c 256,32,33
 232 312 232 312 272 350 c 0,34,35
 302 379 302 379 301 418 c 0,36,37
 300 455 300 455 268 485 c 0,38,39
 230 520 230 520 170 520 c 2,40,-1
 128 520 l 1,41,-1
 128 533 l 1,42,-1
 170 533 l 2,0,1
EndSplineSet
EndChar

StartChar: acute
Encoding: 180 180 109
Width: 222
Flags: HW
LayerCount: 2
Fore
SplineSet
232 742 m 1,0,-1
 134 614 l 1,1,-1
 73 614 l 1,2,-1
 130 742 l 1,3,-1
 232 742 l 1,0,-1
EndSplineSet
EndChar

StartChar: glyph110
Encoding: 183 183 110
Width: 290
Flags: HW
LayerCount: 2
Fore
SplineSet
106 391 m 1,0,-1
 191 391 l 1,1,-1
 191 306 l 1,2,-1
 106 306 l 1,3,-1
 106 391 l 1,0,-1
EndSplineSet
EndChar

StartChar: cedilla
Encoding: 184 184 111
Width: 245
Flags: HW
LayerCount: 2
Fore
SplineSet
125 -224 m 1,0,1
 85 -224 85 -224 61 -216 c 1,2,-1
 61 -196 l 1,3,4
 86 -206 86 -206 101 -206 c 128,-1,5
 116 -206 116 -206 126.5 -204.5 c 0,6,7
 136 -204 136 -204 146 -198 c 0,8,9
 170 -184 170 -184 170 -151 c 0,10,11
 170 -90 170 -90 109 -90 c 0,12,13
 95 -90 95 -90 72 -95 c 1,14,15
 80 -87 80 -87 97.5 -49.5 c 128,-1,16
 115 -12 115 -12 123 2 c 1,17,-1
 130 2 l 1,18,-1
 89 -78 l 1,19,20
 101 -77 101 -77 111 -77 c 0,21,22
 181 -78 181 -78 200 -124 c 0,23,24
 206 -138 206 -138 206 -151 c 0,25,26
 206 -215 206 -215 125 -224 c 1,0,1
EndSplineSet
EndChar

StartChar: onesuperior
Encoding: 185 185 112
Width: 297
Flags: HW
LayerCount: 2
Fore
SplineSet
163 726 m 1,0,-1
 163 362 l 1,1,-1
 148 362 l 1,2,-1
 148 715 l 1,3,4
 143 714 143 714 136 713 c 128,-1,5
 129 712 129 712 121.5 710.5 c 128,-1,6
 114 709 114 709 105 708 c 1,7,-1
 119 715 l 2,8,9
 124 718 124 718 130 721 c 2,10,11
 140 726 l 1,12,-1
 163 726 l 1,0,-1
EndSplineSet
EndChar

StartChar: ordmasculine
Encoding: 186 186 113
Width: 400
Flags: HW
LayerCount: 2
Fore
SplineSet
117 640 m 0,0,1
 104 618 104 618 104 576 c 128,-1,2
 104 534 104 534 117.5 511.5 c 128,-1,3
 131 489 131 489 148 479 c 0,4,5
 168 467 168 467 203 467 c 0,6,7
 264 468 264 468 293 514 c 0,8,9
 307 536 307 536 307 577.5 c 128,-1,10
 307 619 307 619 293 641 c 0,11,12
 279 664 279 664 261 674 c 0,13,14
 238 688 238 688 203 687 c 256,15,16
 144 686 144 686 117 640 c 0,0,1
203 437 m 256,17,18
 64 437 64 437 64 577 c 0,19,20
 64 647 64 647 101 682.5 c 128,-1,21
 138 718 138 718 203 719 c 1,22,23
 278 718 278 718 311 682 c 128,-1,24
 344 646 344 646 344 577 c 0,25,26
 344 478 344 478 268 448 c 0,27,28
 241 438 241 438 203 437 c 256,17,18
EndSplineSet
EndChar

StartChar: guillemotright
Encoding: 187 187 114
Width: 555
Flags: HW
LayerCount: 2
Fore
SplineSet
512 282 m 256,0,1
 512 270 512 270 499 262 c 1,2,-1
 330 140 l 1,3,4
 330 152 330 152 331.5 166 c 128,-1,5
 333 180 333 180 342 186 c 128,-1,6
 351 192 351 192 368.5 204 c 128,-1,7
 386 216 386 216 407 231 c 0,8,9
 461 270 461 270 477 282 c 1,10,-1
 342 378 l 1,11,12
 332 383 332 383 331 396 c 128,-1,13
 330 409 330 409 330 423 c 1,14,-1
 500 302 l 2,15,16
 512 294 512 294 512 282 c 256,0,1
262 282 m 256,17,18
 262 270 262 270 249 262 c 1,19,-1
 80 140 l 1,20,21
 80 152 80 152 81.5 166 c 128,-1,22
 83 180 83 180 92 186 c 128,-1,23
 101 192 101 192 118.5 204 c 128,-1,24
 136 216 136 216 157 231 c 0,25,26
 211 270 211 270 227 282 c 1,27,-1
 92 378 l 1,28,29
 82 383 82 383 81 396 c 128,-1,30
 80 409 80 409 80 423 c 1,31,-1
 250 302 l 2,32,33
 262 294 262 294 262 282 c 256,17,18
EndSplineSet
EndChar

StartChar: questiondown
Encoding: 191 191 115
Width: 562
Flags: HW
LayerCount: 2
Fore
SplineSet
521 -202 m 1,0,1
 426 -235 426 -235 330 -235 c 0,2,3
 153 -236 153 -236 99 -140 c 0,4,5
 80 -106 80 -106 80 -67 c 128,-1,6
 80 -28 80 -28 89 -3.5 c 128,-1,7
 98 21 98 21 113.5 41.5 c 128,-1,8
 129 62 129 62 150.5 80 c 128,-1,9
 172 98 172 98 195 116 c 128,-1,10
 218 134 218 134 239 151.5 c 0,11,12
 260 170 260 170 277 190 c 0,13,14
 316 237 316 237 321 293 c 1,15,-1
 359 293 l 1,16,17
 354 223 354 223 318 167 c 0,18,19
 295 132 295 132 246 94 c 0,20,21
 228 79 228 79 211 64 c 128,-1,22
 194 49 194 49 182 31 c 0,23,24
 154 -10 154 -10 153.5 -62 c 128,-1,25
 153 -114 153 -114 195 -149 c 128,-1,26
 237 -184 237 -184 325.5 -184 c 128,-1,27
 414 -184 414 -184 521 -134 c 1,28,-1
 521 -202 l 1,0,1
377 433 m 1,29,-1
 293 433 l 1,30,-1
 293 517 l 1,31,-1
 377 517 l 1,32,-1
 377 433 l 1,29,-1
EndSplineSet
EndChar

StartChar: AE
Encoding: 198 198 122
Width: 1041
Flags: HW
LayerCount: 2
Fore
SplineSet
347 315 m 1,0,-1
 605 315 l 1,1,-1
 607 672 l 1,2,-1
 347 315 l 1,0,-1
673 554 m 1,3,-1
 674 422 l 1,4,-1
 674 385 l 1,5,-1
 930 385 l 1,6,-1
 930 342 l 1,7,-1
 674 342 l 1,8,-1
 676 43 l 1,9,-1
 1044 43 l 1,10,-1
 1044 0 l 1,11,-1
 605 0 l 1,12,-1
 605 273 l 1,13,-1
 324 273 l 1,14,-1
 118 1 l 1,15,-1
 62 1 l 1,16,-1
 587 714 l 1,17,-1
 1019 714 l 1,18,-1
 1019 672 l 1,19,-1
 673 672 l 1,20,-1
 673 554 l 1,3,-1
EndSplineSet
EndChar

StartChar: Oslash
Encoding: 216 216 138
Width: 824
Flags: HW
LayerCount: 2
Fore
SplineSet
558 716 m 1,0,-1
 568 736 l 1,1,-1
 587 736 l 1,2,-1
 577 712 l 1,3,4
 693 668 693 668 746 580.5 c 128,-1,5
 799 493 799 493 799 356 c 0,6,7
 798 91 798 91 596 9 c 0,8,9
 524 -20 524 -20 424 -20 c 0,10,11
 365 -20 365 -20 293 -8 c 1,12,-1
 289 -20 l 1,13,-1
 272 -20 l 1,14,-1
 279 -5 l 1,15,16
 51 71 51 71 47 356 c 1,17,18
 48 531 48 531 154 632 c 0,19,20
 258 731 258 731 424 731 c 0,21,22
 494 731 494 731 558 716 c 1,0,-1
543 671 m 1,23,24
 482 687 482 687 423 687 c 0,25,26
 328 687 328 687 255 645 c 0,27,28
 180 601 180 601 144 495 c 0,29,30
 126 439 126 439 125.5 364.5 c 128,-1,31
 125 290 125 290 139 239 c 128,-1,32
 153 188 153 188 177 150 c 0,33,34
 220 82 220 82 295 43 c 1,35,-1
 424 367 l 1,36,-1
 543 671 l 1,23,24
312 37 m 1,37,38
 357 25 357 25 424 25 c 0,39,40
 515 25 515 25 593 67 c 0,41,42
 674 112 674 112 712 218 c 0,43,44
 732 274 732 274 732 347.5 c 128,-1,45
 732 421 732 421 717.5 470.5 c 128,-1,46
 703 520 703 520 679 558 c 0,47,48
 638 623 638 623 559 665 c 1,49,-1
 312 37 l 1,37,38
EndSplineSet
EndChar

StartChar: germandbls
Encoding: 223 223 144
Width: 572
Flags: HW
LayerCount: 2
Fore
SplineSet
267 39 m 1,0,1
 441 55 441 55 441 205 c 0,2,3
 440 268 440 268 412 304 c 0,4,5
 373 352 373 352 271 373 c 1,6,-1
 271 425 l 1,7,8
 349 429 349 429 388.5 461 c 128,-1,9
 428 493 428 493 428 565 c 0,10,11
 428 638 428 638 382 672 c 0,12,13
 343 700 343 700 289.5 700 c 128,-1,14
 236 700 236 700 210.5 689 c 128,-1,15
 185 678 185 678 171 654 c 0,16,17
 148 614 148 614 148 498 c 2,18,-1
 148 0 l 1,19,-1
 77 0 l 1,20,-1
 77 450 l 2,21,22
 77 513 77 513 81 568 c 128,-1,23
 85 623 85 623 104.5 664 c 128,-1,24
 124 705 124 705 164.5 728.5 c 128,-1,25
 205 752 205 752 279 752 c 0,26,27
 412 752 412 752 465 660 c 0,28,29
 486 624 486 624 486 564 c 0,30,31
 486 472 486 472 408 426 c 0,32,33
 379 409 379 409 336 400 c 1,34,35
 464 368 464 368 504 280 c 0,36,37
 519 247 519 247 519 189.5 c 128,-1,38
 519 132 519 132 496 90 c 0,39,40
 472 48 472 48 436 26 c 0,41,42
 377 -8 377 -8 267 -8 c 1,43,-1
 267 39 l 1,0,1
EndSplineSet
EndChar

StartChar: ae
Encoding: 230 230 151
Width: 826
Flags: HW
LayerCount: 2
Fore
SplineSet
783 107 m 1,0,-1
 826 72 l 1,1,2
 767 -2 767 -2 679 -13 c 0,3,4
 654 -16 654 -16 630 -16 c 0,5,6
 563 -16 563 -16 515 7.5 c 128,-1,7
 467 31 467 31 427 74 c 1,8,9
 346 -16 346 -16 236 -16 c 0,10,11
 86 -16 86 -16 44 116 c 0,12,13
 30 162 30 162 30 224 c 1,14,-1
 398 224 l 1,15,16
 398 275 398 275 395 323.5 c 128,-1,17
 392 372 392 372 376 409 c 0,18,19
 342 491 342 491 235 491 c 0,20,21
 147 491 147 491 80 409 c 1,22,-1
 67 419 l 1,23,24
 49 435 49 435 37 444 c 1,25,26
 113 532 113 532 235 532 c 128,-1,27
 357 532 357 532 435 441 c 1,28,29
 517 532 517 532 629 532 c 0,30,31
 778 532 778 532 820 402 c 0,32,33
 834 356 834 356 835 292 c 1,34,-1
 467 292 l 1,35,36
 467 241 467 241 470 192.5 c 0,37,38
 472 144 472 144 488 107 c 0,39,40
 522 25 522 25 630 25 c 0,41,42
 723 25 723 25 783 107 c 1,0,-1
777 333 m 1,43,44
 772 390 772 390 739 432 c 0,45,46
 697 486 697 486 629 486 c 0,47,48
 550 486 550 486 510 436 c 0,49,50
 479 397 479 397 475 333 c 1,51,-1
 777 333 l 1,43,44
89 183 m 1,52,53
 91 130 91 130 125 84 c 0,54,55
 165 30 165 30 236 30 c 1,56,57
 315 30 315 30 354 80 c 0,58,59
 384 119 384 119 389 183 c 1,60,-1
 89 183 l 1,52,53
EndSplineSet
EndChar

StartChar: ccedilla
Encoding: 231 231 152
Width: 531
Flags: HW
LayerCount: 2
Fore
SplineSet
244 -190 m 1,0,1
 266 -200 266 -200 282.5 -200 c 128,-1,2
 299 -200 299 -200 309.5 -198 c 128,-1,3
 320 -196 320 -196 330 -190 c 0,4,5
 354 -175 354 -175 353 -146 c 0,6,7
 353 -84 353 -84 292 -84 c 2,8,-1
 274 -84 l 2,9,10
 266 -84 266 -84 257 -85 c 1,11,12
 262 -82 262 -82 272.5 -61.5 c 128,-1,13
 283 -41 283 -41 295 -18 c 1,14,15
 175 4 175 4 115.5 72 c 128,-1,16
 56 140 56 140 56 261 c 0,17,18
 56 472 56 472 213 514 c 0,19,20
 263 528 263 528 341 528 c 128,-1,21
 419 528 419 528 491 492 c 1,22,-1
 491 436 l 1,23,24
 407 484 407 484 326 484 c 0,25,26
 233 484 233 484 185 443 c 0,27,28
 123 390 123 390 123 263 c 0,29,30
 124 130 124 130 184 73 c 0,31,32
 232 28 232 28 321.5 28 c 129,-1,33
 411 28 411 28 500 71 c 1,34,-1
 500 34 l 2,35,36
 500 19 500 19 501 11 c 1,37,38
 403 -18 403 -18 326 -18 c 2,39,-1
 297 -18 l 1,40,-1
 277 -72 l 1,41,42
 282 -72 282 -72 287 -72 c 0,43,44
 366 -72 366 -72 384 -117 c 0,45,46
 390 -131 390 -131 390 -146 c 0,47,48
 390 -178 390 -178 368 -196 c 128,-1,49
 346 -214 346 -214 311 -217 c 1,50,51
 270 -217 270 -217 244 -211 c 1,52,-1
 244 -190 l 1,0,1
EndSplineSet
EndChar

StartChar: oslash
Encoding: 248 248 167
Width: 565
Flags: HW
LayerCount: 2
Fore
SplineSet
162 12 m 1,0,-1
 143 -20 l 1,1,-1
 131 -20 l 1,2,-1
 153 17 l 1,3,4
 100 48 100 48 72 122 c 0,5,6
 48 184 48 184 48.5 255 c 128,-1,7
 49 326 49 326 61.5 377 c 128,-1,8
 74 428 74 428 102 462 c 0,9,10
 160 532 160 532 287 533 c 0,11,12
 391 533 391 533 443 492 c 1,13,-1
 461 518 l 1,14,-1
 472 518 l 1,15,-1
 450 486 l 1,16,17
 514 436 514 436 530 324 c 0,18,19
 534 292 534 292 534.5 242.5 c 128,-1,20
 535 193 535 193 523.5 141 c 128,-1,21
 512 89 512 89 484 54 c 0,22,23
 428 -17 428 -17 297 -17 c 0,24,25
 218 -17 218 -17 162 12 c 1,0,-1
415 443 m 1,26,27
 378 487 378 487 316 487 c 2,28,-1
 287 487 l 2,29,30
 261 487 261 487 231.5 484 c 128,-1,31
 202 481 202 481 178 460 c 0,32,33
 122 412 122 412 121 261 c 0,34,35
 121 147 121 147 181 62 c 1,36,37
 400 418 400 418 415 443 c 1,26,27
249 32 m 128,-1,39
 280 29 280 29 299.5 29 c 128,-1,40
 319 29 319 29 346.5 33 c 0,41,42
 374 36 374 36 398 58 c 0,43,44
 456 109 456 109 457 261 c 0,45,46
 457 388 457 388 421 436 c 1,47,-1
 187 56 l 1,48,38
 218 35 218 35 249 32 c 128,-1,39
EndSplineSet
EndChar

StartChar: dotlessi
Encoding: 305 305 174
Width: 241
Flags: HW
LayerCount: 2
Fore
SplineSet
92 518 m 1,0,-1
 160 518 l 1,1,-1
 160 0 l 1,2,-1
 92 0 l 1,3,-1
 92 518 l 1,0,-1
EndSplineSet
EndChar

StartChar: florin
Encoding: 402 402 180
Width: 322
Flags: HW
LayerCount: 2
Fore
SplineSet
423 697 m 1,0,1
 346 725 346 725 313 727 c 1,2,3
 260 727 260 727 232.5 714.5 c 128,-1,4
 205 702 205 702 192.5 680.5 c 128,-1,5
 180 659 180 659 178.5 629 c 128,-1,6
 177 599 177 599 177 563 c 2,7,-1
 177 517 l 1,8,-1
 306 517 l 1,9,-1
 306 474 l 1,10,-1
 177 474 l 1,11,-1
 177 -21 l 1,12,13
 174 -122 174 -122 126 -174 c 0,14,15
 97 -206 97 -206 50 -215 c 1,16,-1
 50 -170 l 1,17,18
 84 -138 84 -138 95 -119 c 0,19,20
 113 -84 113 -84 113 -28 c 2,21,-1
 113 474 l 1,22,-1
 27 474 l 1,23,-1
 27 517 l 1,24,-1
 113 517 l 1,25,-1
 113 563 l 2,26,27
 112 684 112 684 164 734 c 0,28,29
 210 778 210 778 312 779 c 0,30,31
 357 779 357 779 422 748 c 1,32,-1
 423 697 l 1,0,1
EndSplineSet
EndChar

StartChar: circumflex
Encoding: 710 710 181
Width: 240
Flags: HW
LayerCount: 2
Fore
SplineSet
121 728 m 1,0,-1
 42 625 l 1,1,-1
 -1 625 l 1,2,-1
 102 754 l 1,3,-1
 141 754 l 1,4,-1
 244 625 l 1,5,-1
 201 625 l 1,6,-1
 121 728 l 1,0,-1
EndSplineSet
EndChar

StartChar: caron
Encoding: 711 711 182
Width: 230
Flags: HW
LayerCount: 2
Fore
SplineSet
122 651 m 1,0,-1
 201 754 l 1,1,-1
 244 754 l 1,2,-1
 141 625 l 1,3,-1
 102 625 l 1,4,-1
 -1 754 l 1,5,-1
 42 754 l 1,6,-1
 122 651 l 1,0,-1
EndSplineSet
EndChar

StartChar: ring
Encoding: 730 730 183
Width: 400
Flags: HW
LayerCount: 2
Fore
SplineSet
109 662 m 0,0,1
 94 636 94 636 94 588.5 c 128,-1,2
 94 541 94 541 109.5 515.5 c 0,3,4
 124 490 124 490 144 478 c 0,5,6
 167 464 167 464 207 465 c 0,7,8
 277 466 277 466 310 518 c 0,9,10
 326 544 326 544 326 590 c 256,11,12
 326 670 326 670 274 700 c 0,13,14
 246 716 246 716 207 715 c 256,15,16
 140 714 140 714 109 662 c 0,0,1
207 727 m 1,17,18
 280 726 280 726 311.5 691 c 128,-1,19
 343 656 343 656 343 594 c 128,-1,20
 343 532 343 532 312 493.5 c 128,-1,21
 281 455 281 455 207 455 c 0,22,23
 73 455 73 455 73 590 c 0,24,25
 73 658 73 658 108.5 692 c 128,-1,26
 144 726 144 726 207 727 c 1,17,18
EndSplineSet
EndChar

StartChar: tilde
Encoding: 732 732 184
Width: 222
Flags: HW
LayerCount: 2
Fore
SplineSet
157 701.5 m 128,-1,1
 177 697 177 697 207 697 c 128,-1,2
 237 697 237 697 261 707 c 1,3,-1
 261 669 l 1,4,5
 233 646 233 646 204.5 646 c 128,-1,6
 176 646 176 646 156.5 650 c 128,-1,7
 137 654 137 654 118 659 c 0,8,9
 69 672 69 672 38.5 672 c 128,-1,10
 8 672 8 672 -17 662 c 1,11,-1
 -18 705 l 1,12,13
 -5 725 -5 725 39 725 c 0,14,15
 63 725 63 725 100 715.5 c 128,-1,0
 137 706 137 706 157 701.5 c 128,-1,1
EndSplineSet
EndChar

StartChar: gravecmb
Encoding: 768 768 185
Width: 222
Flags: HW
LayerCount: 2
Fore
SplineSet
82 751 m 1,0,-1
 132 639 l 1,1,-1
 90 639 l 1,2,-1
 4 751 l 1,3,-1
 82 751 l 1,0,-1
EndSplineSet
EndChar

StartChar: acutecmb
Encoding: 769 769 186
Width: 222
Flags: HW
LayerCount: 2
Fore
SplineSet
232 742 m 1,0,-1
 134 614 l 1,1,-1
 73 614 l 1,2,-1
 130 742 l 1,3,-1
 232 742 l 1,0,-1
EndSplineSet
EndChar

StartChar: circumflexcmb
Encoding: 770 770 187
Width: 240
Flags: HW
LayerCount: 2
Fore
SplineSet
121 728 m 1,0,-1
 42 625 l 1,1,-1
 -1 625 l 1,2,-1
 102 754 l 1,3,-1
 141 754 l 1,4,-1
 244 625 l 1,5,-1
 201 625 l 1,6,-1
 121 728 l 1,0,-1
EndSplineSet
EndChar

StartChar: tildecmb
Encoding: 771 771 188
Width: 222
Flags: HW
LayerCount: 2
Fore
SplineSet
157 701.5 m 128,-1,1
 177 697 177 697 207 697 c 128,-1,2
 237 697 237 697 261 707 c 1,3,-1
 261 669 l 1,4,5
 233 646 233 646 204.5 646 c 128,-1,6
 176 646 176 646 156.5 650 c 128,-1,7
 137 654 137 654 118 659 c 0,8,9
 69 672 69 672 38.5 672 c 128,-1,10
 8 672 8 672 -17 662 c 1,11,-1
 -18 705 l 1,12,13
 -5 725 -5 725 39 725 c 0,14,15
 63 725 63 725 100 715.5 c 128,-1,0
 137 706 137 706 157 701.5 c 128,-1,1
EndSplineSet
EndChar

StartChar: ringcmb
Encoding: 778 778 190
Width: 400
Flags: HW
LayerCount: 2
Fore
SplineSet
109 662 m 0,0,1
 94 636 94 636 94 588.5 c 128,-1,2
 94 541 94 541 109.5 515.5 c 0,3,4
 124 490 124 490 144 478 c 0,5,6
 167 464 167 464 207 465 c 0,7,8
 277 466 277 466 310 518 c 0,9,10
 326 544 326 544 326 590 c 256,11,12
 326 670 326 670 274 700 c 0,13,14
 246 716 246 716 207 715 c 256,15,16
 140 714 140 714 109 662 c 0,0,1
207 727 m 1,17,18
 280 726 280 726 311.5 691 c 128,-1,19
 343 656 343 656 343 594 c 128,-1,20
 343 532 343 532 312 493.5 c 128,-1,21
 281 455 281 455 207 455 c 0,22,23
 73 455 73 455 73 590 c 0,24,25
 73 658 73 658 108.5 692 c 128,-1,26
 144 726 144 726 207 727 c 1,17,18
EndSplineSet
EndChar

StartChar: caroncmb
Encoding: 780 780 191
Width: 230
Flags: HW
LayerCount: 2
Fore
SplineSet
122 651 m 1,0,-1
 201 754 l 1,1,-1
 244 754 l 1,2,-1
 141 625 l 1,3,-1
 102 625 l 1,4,-1
 -1 754 l 1,5,-1
 42 754 l 1,6,-1
 122 651 l 1,0,-1
EndSplineSet
EndChar

StartChar: cedillacmb
Encoding: 807 807 192
Width: 245
Flags: HW
LayerCount: 2
Fore
SplineSet
125 -224 m 1,0,1
 85 -224 85 -224 61 -216 c 1,2,-1
 61 -196 l 1,3,4
 86 -206 86 -206 101 -206 c 128,-1,5
 116 -206 116 -206 126.5 -204.5 c 0,6,7
 136 -204 136 -204 146 -198 c 0,8,9
 170 -184 170 -184 170 -151 c 0,10,11
 170 -90 170 -90 109 -90 c 0,12,13
 95 -90 95 -90 72 -95 c 1,14,15
 80 -87 80 -87 97.5 -49.5 c 128,-1,16
 115 -12 115 -12 123 2 c 1,17,-1
 130 2 l 1,18,-1
 89 -78 l 1,19,20
 101 -77 101 -77 111 -77 c 0,21,22
 181 -78 181 -78 200 -124 c 0,23,24
 206 -138 206 -138 206 -151 c 0,25,26
 206 -215 206 -215 125 -224 c 1,0,1
EndSplineSet
EndChar

StartChar: endash
Encoding: 8211 8211 194
Width: 500
Flags: HW
LayerCount: 2
Fore
SplineSet
511 304 m 1,0,-1
 511 253 l 1,1,-1
 12 253 l 1,2,-1
 12 304 l 1,3,-1
 511 304 l 1,0,-1
EndSplineSet
EndChar

StartChar: emdash
Encoding: 8212 8212 195
Width: 1000
Flags: HW
LayerCount: 2
Fore
SplineSet
143 304 m 1,0,-1
 902 304 l 1,1,-1
 902 253 l 1,2,-1
 143 253 l 1,3,-1
 143 304 l 1,0,-1
EndSplineSet
EndChar

StartChar: quoteleft
Encoding: 8216 8216 196
Width: 278
Flags: HW
LayerCount: 2
Fore
SplineSet
100 448 m 1,0,1
 91 502 91 502 91 547.5 c 128,-1,2
 91 593 91 593 100 625 c 0,3,4
 108 657 108 657 124 677 c 0,5,6
 153 714 153 714 200 721 c 1,7,-1
 200 682 l 1,8,9
 132 674 132 674 126 586 c 0,10,11
 124 560 124 560 125 533 c 1,12,-1
 187 533 l 1,13,-1
 187 448 l 1,14,-1
 100 448 l 1,0,1
EndSplineSet
EndChar

StartChar: quoteright
Encoding: 8217 8217 197
Width: 278
Flags: HW
LayerCount: 2
Fore
SplineSet
190 722 m 1,0,1
 198 664 198 664 198 619.5 c 128,-1,2
 198 575 198 575 188.5 544 c 0,3,4
 180 513 180 513 164 493 c 0,5,6
 137 459 137 459 89 449 c 1,7,-1
 89 485 l 1,8,9
 158 492 158 492 162 584 c 0,10,11
 163 610 163 610 163 637 c 1,12,-1
 103 637 l 1,13,-1
 103 722 l 1,14,-1
 190 722 l 1,0,1
EndSplineSet
EndChar

StartChar: quotesinglbase
Encoding: 8218 8218 198
Width: 278
Flags: HW
LayerCount: 2
Fore
SplineSet
193 84 m 1,0,1
 201 26 201 26 201 -17 c 128,-1,2
 201 -60 201 -60 192 -91.5 c 0,3,4
 184 -124 184 -124 168 -144 c 0,5,6
 140 -181 140 -181 92 -187 c 1,7,-1
 92 -152 l 1,8,9
 161 -145 161 -145 165 -52 c 0,10,11
 166 -26 166 -26 166 0 c 1,12,-1
 106 0 l 1,13,-1
 106 84 l 1,14,-1
 193 84 l 1,0,1
EndSplineSet
EndChar

StartChar: quotedblleft
Encoding: 8220 8220 199
Width: 440
Flags: HW
LayerCount: 2
Fore
SplineSet
183 683 m 1,0,1
 133 676 133 676 118 632 c 0,2,3
 108 603 108 603 108 533 c 1,4,-1
 170 533 l 1,5,-1
 170 448 l 1,6,-1
 83 448 l 1,7,8
 73 504 73 504 73 548.5 c 128,-1,9
 73 593 73 593 82.5 624.5 c 128,-1,10
 92 656 92 656 108 676 c 0,11,12
 135 711 135 711 183 721 c 1,13,-1
 183 683 l 1,0,1
290 448 m 1,14,15
 283 516 283 516 283 555 c 128,-1,16
 283 594 283 594 292 625 c 128,-1,17
 301 656 301 656 316 676 c 0,18,19
 342 711 342 711 391 721 c 1,20,-1
 391 683 l 1,21,22
 324 674 324 674 318 586 c 0,23,24
 316 560 316 560 317 533 c 1,25,-1
 377 533 l 1,26,-1
 377 448 l 1,27,-1
 290 448 l 1,14,15
EndSplineSet
EndChar

StartChar: quotedblright
Encoding: 8221 8221 200
Width: 444
Flags: HW
LayerCount: 2
Fore
SplineSet
378 722 m 1,0,1
 387 677 387 677 387 626 c 128,-1,2
 387 575 387 575 377.5 544 c 128,-1,3
 368 513 368 513 353 493 c 0,4,5
 327 458 327 458 278 449 c 1,6,-1
 278 485 l 1,7,8
 347 492 347 492 351 584 c 0,9,10
 352 610 352 610 352 637 c 1,11,-1
 290 637 l 1,12,-1
 290 722 l 1,13,-1
 378 722 l 1,0,1
171 722 m 1,14,15
 179 645 179 645 179 610 c 128,-1,16
 179 575 179 575 169.5 544 c 128,-1,17
 160 513 160 513 144 493 c 0,18,19
 117 459 117 459 69 449 c 1,20,-1
 69 485 l 1,21,22
 136 492 136 492 142 584 c 0,23,24
 144 610 144 610 144 637 c 1,25,-1
 84 637 l 1,26,-1
 84 722 l 1,27,-1
 171 722 l 1,14,15
EndSplineSet
EndChar

StartChar: quotedblbase
Encoding: 8222 8222 201
Width: 487
Flags: HW
LayerCount: 2
Fore
SplineSet
102 84 m 1,0,-1
 188 84 l 1,1,2
 197 25 197 25 197 -17.5 c 128,-1,3
 197 -60 197 -60 188 -91.5 c 0,4,5
 180 -124 180 -124 164 -144 c 0,6,7
 136 -181 136 -181 88 -187 c 1,8,-1
 88 -152 l 1,9,10
 156 -144 156 -144 160 -52 c 0,11,12
 161 -26 161 -26 161 0 c 1,13,-1
 102 0 l 1,14,-1
 102 84 l 1,0,-1
387 -1 m 1,15,-1
 328 0 l 1,16,-1
 328 84 l 1,17,-1
 415 84 l 1,18,19
 425 22 425 22 425 -19.5 c 128,-1,20
 425 -61 425 -61 415.5 -92.5 c 128,-1,21
 406 -124 406 -124 390 -144 c 0,22,23
 362 -180 362 -180 315 -187 c 1,24,-1
 315 -152 l 1,25,26
 383 -145 383 -145 386 -54 c 0,27,28
 387 -28 387 -28 387 -1 c 1,15,-1
EndSplineSet
EndChar

StartChar: bullet
Encoding: 8226 8226 202
Width: 500
Flags: HW
LayerCount: 2
Fore
SplineSet
78 364 m 0,0,1
 78 402 78 402 92 434.5 c 128,-1,2
 106 467 106 467 131 492 c 0,3,4
 184 545 184 545 259 545 c 128,-1,5
 334 545 334 545 387 492 c 128,-1,6
 440 439 440 439 440 364 c 128,-1,7
 440 289 440 289 387 236 c 128,-1,8
 334 183 334 183 259 183 c 128,-1,9
 184 183 184 183 131 236.5 c 128,-1,10
 78 290 78 290 78 364 c 0,0,1
EndSplineSet
EndChar

StartChar: ellipsis
Encoding: 8230 8230 203
Width: 813
Flags: HW
LayerCount: 2
Fore
SplineSet
93 83 m 1,0,-1
 178 83 l 1,1,-1
 178 -1 l 1,2,-1
 93 -1 l 1,3,-1
 93 83 l 1,0,-1
387 83 m 1,4,-1
 472 83 l 1,5,-1
 472 -1 l 1,6,-1
 387 -1 l 1,7,-1
 387 83 l 1,4,-1
681 83 m 1,8,-1
 765 83 l 1,9,-1
 765 -1 l 1,10,-1
 681 -1 l 1,11,-1
 681 83 l 1,8,-1
EndSplineSet
EndChar

StartChar: guilsinglleft
Encoding: 8249 8249 204
Width: 306
Flags: HW
LayerCount: 2
Fore
SplineSet
71 282 m 256,0,1
 71 294 71 294 83 302 c 2,2,-1
 253 423 l 1,3,4
 253 409 253 409 252 396 c 128,-1,5
 251 383 251 383 241 378 c 1,6,-1
 106 282 l 1,7,8
 145 252 145 252 188.5 222 c 128,-1,9
 232 192 232 192 241 186 c 0,10,11
 253 178 253 178 253 140 c 1,12,-1
 84 262 l 1,13,14
 71 270 71 270 71 282 c 256,0,1
EndSplineSet
EndChar

StartChar: guilsinglright
Encoding: 8250 8250 205
Width: 311
Flags: HW
LayerCount: 2
Fore
SplineSet
257 282 m 256,0,1
 257 270 257 270 244 262 c 1,2,-1
 75 140 l 1,3,4
 75 152 75 152 76.5 166 c 128,-1,5
 78 180 78 180 87 186 c 128,-1,6
 96 192 96 192 113.5 204 c 128,-1,7
 131 216 131 216 152 231 c 0,8,9
 206 270 206 270 222 282 c 1,10,-1
 87 378 l 1,11,12
 77 383 77 383 76 396 c 128,-1,13
 75 409 75 409 75 423 c 1,14,-1
 245 302 l 2,15,16
 257 294 257 294 257 282 c 256,0,1
EndSplineSet
EndChar

StartChar: fraction
Encoding: 8260 8260 206
Width: 347
Flags: HW
LayerCount: 2
Fore
SplineSet
355 753 m 1,0,-1
 22 -20 l 1,1,-1
 9 -20 l 1,2,-1
 343 753 l 1,3,-1
 355 753 l 1,0,-1
EndSplineSet
EndChar

StartChar: Euro
Encoding: 8364 8364 207
Width: 615
Flags: HW
LayerCount: 2
Fore
SplineSet
112 293 m 1,0,1
 110 346 110 346 110 385 c 0,2,3
 110 432 110 432 113 460 c 1,4,-1
 40 460 l 1,5,-1
 53 481 l 1,6,-1
 114 481 l 1,7,8
 169 769 169 769 402 769 c 0,9,10
 457 769 457 769 506.5 757.5 c 128,-1,11
 556 746 556 746 597 734 c 1,12,-1
 597 672 l 1,13,14
 552 692 552 692 502.5 708.5 c 128,-1,15
 453 725 453 725 415 725 c 128,-1,16
 377 725 377 725 347.5 718 c 0,17,18
 318 710 318 710 289 686 c 0,19,20
 222 629 222 629 195 481 c 1,21,-1
 446 481 l 1,22,-1
 439 460 l 1,23,-1
 195 460 l 1,24,25
 192 382 192 382 192 365.5 c 128,-1,26
 192 349 192 349 198 293 c 1,27,-1
 391 293 l 1,28,29
 388 277 388 277 386 271 c 1,30,-1
 199 271 l 1,31,32
 224 171 224 171 274 116 c 0,33,34
 310 75 310 75 356 60 c 0,35,36
 377 53 377 53 402 53 c 0,37,38
 467 53 467 53 516 75.5 c 128,-1,39
 565 98 565 98 605 130 c 1,40,-1
 605 60 l 1,41,42
 518 0 518 0 402 0 c 1,43,44
 300 0 300 0 222 72 c 0,45,46
 144 145 144 145 113 271 c 1,47,-1
 40 271 l 1,48,-1
 53 293 l 1,49,-1
 112 293 l 1,0,1
EndSplineSet
EndChar

StartChar: approxequal
Encoding: 8776 8776 208
Width: 600
Flags: HW
LayerCount: 2
Fore
SplineSet
518 217 m 1,0,1
 450 189 450 189 416 189 c 128,-1,2
 382 189 382 189 358 193 c 0,3,4
 334 196 334 196 312 202 c 0,5,6
 259 216 259 216 215 216 c 128,-1,7
 171 216 171 216 108 197 c 1,8,-1
 106 237 l 1,9,10
 134 250 134 250 158 259 c 128,-1,11
 182 268 182 268 213.5 268 c 128,-1,12
 245 268 245 268 267.5 263.5 c 128,-1,13
 290 259 290 259 311 254 c 0,14,15
 370 240 370 240 419.5 240 c 128,-1,16
 469 240 469 240 518 262 c 1,17,-1
 518 217 l 1,0,1
EndSplineSet
EndChar

StartChar: ff
Encoding: 64256 64256 210
Width: 626
Flags: HW
LayerCount: 2
Fore
SplineSet
427 690 m 1,0,1
 355 728 355 728 303.5 728 c 128,-1,2
 252 728 252 728 225 715.5 c 128,-1,3
 198 703 198 703 186 681.5 c 128,-1,4
 174 660 174 660 172 630 c 128,-1,5
 170 600 170 600 170 564 c 2,6,-1
 170 518 l 1,7,-1
 436 518 l 1,8,-1
 436 564 l 2,9,10
 436 686 436 686 488 736 c 0,11,12
 533 779 533 779 634 780 c 0,13,14
 677 780 677 780 745 749 c 1,15,-1
 746 698 l 1,16,17
 686 728 686 728 634 728 c 128,-1,18
 582 728 582 728 554.5 715.5 c 128,-1,19
 527 703 527 703 514.5 681.5 c 128,-1,20
 502 660 502 660 500.5 630 c 128,-1,21
 499 600 499 600 499 564 c 2,22,-1
 499 518 l 1,23,-1
 628 518 l 1,24,-1
 628 475 l 1,25,-1
 499 475 l 1,26,-1
 499 -211 l 1,27,-1
 436 -211 l 1,28,-1
 436 475 l 1,29,-1
 170 475 l 1,30,-1
 170 -211 l 1,31,-1
 107 -211 l 1,32,-1
 107 475 l 1,33,-1
 21 475 l 1,34,-1
 21 518 l 1,35,-1
 107 518 l 1,36,-1
 107 564 l 2,37,38
 108 686 108 686 158 736 c 0,39,40
 202 780 202 780 303 780 c 0,41,42
 359 780 359 780 427 742 c 1,43,-1
 427 690 l 1,0,1
EndSplineSet
EndChar

StartChar: fi
Encoding: 64257 64257 211
Width: 606
Flags: HW
LayerCount: 2
Fore
SplineSet
554 518 m 1,0,-1
 554 0 l 1,1,-1
 483 0 l 1,2,-1
 483 475 l 1,3,-1
 166 475 l 1,4,-1
 166 0 l 1,5,-1
 101 0 l 1,6,-1
 101 475 l 1,7,-1
 22 475 l 1,8,-1
 22 518 l 1,9,-1
 101 518 l 1,10,-1
 101 610 l 2,11,12
 102 714 102 714 158 769 c 0,13,14
 210 820 210 820 293 820 c 0,15,16
 380 820 380 820 434 790 c 0,17,18
 450 781 450 781 466 772 c 1,19,-1
 466 805 l 1,20,-1
 554 805 l 1,21,-1
 554 716 l 1,22,-1
 452 716 l 1,23,24
 397 756 397 756 339 772 c 0,25,26
 318 778 318 778 289.5 778 c 128,-1,27
 261 778 261 778 235 761 c 0,28,29
 210 744 210 744 194 718 c 0,30,31
 166 671 166 671 165 606 c 2,32,-1
 165 518 l 1,33,-1
 554 518 l 1,0,-1
EndSplineSet
EndChar

StartChar: fl
Encoding: 64258 64258 212
Width: 602
Flags: HW
LayerCount: 2
Fore
SplineSet
479 1 m 1,0,-1
 479 634 l 2,1,2
 479 706 479 706 436.5 738.5 c 128,-1,3
 394 771 394 771 300 771 c 1,4,5
 194 768 194 768 180 670 c 0,6,7
 176 640 176 640 176 607 c 2,8,-1
 176 518 l 1,9,-1
 303 518 l 1,10,-1
 303 474 l 1,11,-1
 176 474 l 1,12,-1
 176 0 l 1,13,-1
 110 0 l 1,14,-1
 110 474 l 1,15,-1
 20 474 l 1,16,-1
 20 518 l 1,17,-1
 110 518 l 1,18,-1
 110 607 l 2,19,20
 110 784 110 784 223 814 c 0,21,22
 258 824 258 824 300.5 823.5 c 128,-1,23
 343 823 343 823 387.5 815.5 c 128,-1,24
 432 808 432 808 468 788 c 0,25,26
 550 741 550 741 550 634 c 2,27,-1
 550 1 l 1,28,-1
 479 1 l 1,0,-1
EndSplineSet
EndChar

StartChar: tt
Encoding: 65539 -1 213
Width: 632
Flags: HW
LayerCount: 2
Fore
SplineSet
443 28 m 1,0,1
 392 -15 392 -15 314 -15 c 0,2,3
 287 -15 287 -15 253.5 -13.5 c 128,-1,4
 220 -12 220 -12 190 2 c 0,5,6
 120 34 120 34 120 138 c 2,7,-1
 120 474 l 1,8,-1
 19 474 l 1,9,-1
 19 517 l 1,10,-1
 119 517 l 1,11,-1
 140 671 l 1,12,-1
 185 671 l 1,13,-1
 185 138 l 2,14,15
 185 69 185 69 241 47 c 0,16,17
 269 36 269 36 330 36 c 1,18,19
 355 36 355 36 382.5 47.5 c 128,-1,20
 410 59 410 59 423.5 70.5 c 128,-1,21
 437 82 437 82 437 97 c 2,22,-1
 437 475 l 1,23,-1
 255 475 l 1,24,-1
 255 518 l 1,25,-1
 435 518 l 1,26,27
 450 648 450 648 455 672 c 1,28,-1
 501 672 l 1,29,-1
 501 518 l 1,30,-1
 634 518 l 1,31,-1
 634 475 l 1,32,-1
 501 475 l 1,33,-1
 501 139 l 2,34,35
 501 72 501 72 509 58 c 128,-1,36
 517 44 517 44 528.5 40.5 c 128,-1,37
 540 37 540 37 570.5 37 c 128,-1,38
 601 37 601 37 632 54 c 1,39,-1
 632 3 l 1,40,41
 603 -8 603 -8 582.5 -10 c 128,-1,42
 562 -12 562 -12 544 -12 c 128,-1,43
 526 -12 526 -12 513 -10.5 c 0,44,45
 500 -8 500 -8 487 -4 c 0,46,47
 454 8 454 8 443 28 c 1,0,1
EndSplineSet
EndChar

StartChar: ti
Encoding: 65540 -1 214
Width: 547
Flags: HW
LayerCount: 2
Fore
SplineSet
341 36 m 0,0,1
 393 36 393 36 438 56 c 1,2,-1
 438 518 l 1,3,-1
 505 518 l 1,4,-1
 509 12 l 1,5,6
 382 -15 382 -15 316 -15 c 0,7,8
 234 -15 234 -15 198.5 3 c 128,-1,9
 163 21 163 21 143 51.5 c 128,-1,10
 123 82 123 82 123 138 c 2,11,-1
 123 475 l 1,12,-1
 23 475 l 1,13,-1
 23 518 l 1,14,-1
 122 518 l 1,15,-1
 142 671 l 1,16,-1
 189 671 l 1,17,-1
 189 518 l 1,18,-1
 322 518 l 1,19,-1
 322 475 l 1,20,-1
 189 475 l 1,21,-1
 189 138 l 2,22,23
 189 36 189 36 341 36 c 0,0,1
422 710 m 1,24,-1
 422 795 l 1,25,-1
 505 795 l 1,26,-1
 505 710 l 1,27,-1
 422 710 l 1,24,-1
EndSplineSet
EndChar

StartChar: th
Encoding: 65541 -1 215
Width: 870
Flags: HW
LayerCount: 2
Fore
SplineSet
791 318 m 2,0,1
 790 431 790 431 732 468 c 0,2,3
 712 481 712 481 676.5 481 c 128,-1,4
 641 481 641 481 606.5 468 c 128,-1,5
 572 455 572 455 548 434 c 0,6,7
 496 390 496 390 496 337 c 2,8,-1
 496 33 l 1,9,10
 440 -4 440 -4 344 -13 c 0,11,12
 322 -15 322 -15 303.5 -15 c 128,-1,13
 285 -15 285 -15 251 -10.5 c 128,-1,14
 217 -6 217 -6 187 10 c 0,15,16
 116 47 116 47 116 136 c 2,17,-1
 116 475 l 1,18,-1
 14 475 l 1,19,-1
 14 518 l 1,20,-1
 115 518 l 1,21,-1
 136 671 l 1,22,-1
 181 671 l 1,23,-1
 181 518 l 1,24,-1
 315 518 l 1,25,-1
 315 475 l 1,26,-1
 181 475 l 1,27,-1
 181 138 l 2,28,29
 181 76 181 76 231 52 c 0,30,31
 262 36 262 36 311 36 c 0,32,33
 376 36 376 36 415 65 c 0,34,35
 431 77 431 77 431 96 c 2,36,-1
 431 795 l 1,37,-1
 496 795 l 1,38,-1
 496 422 l 1,39,40
 528 468 528 468 584 498 c 0,41,42
 642 528 642 528 706 528 c 0,43,44
 775 528 775 528 815 474 c 0,45,46
 856 419 856 419 856 319 c 0,47,48
 856 315 856 315 856 310 c 1,49,-1
 856 0 l 1,50,-1
 791 0 l 1,51,-1
 791 318 l 2,0,1
EndSplineSet
EndChar

StartChar: ck
Encoding: 65542 -1 216
Width: 1047
Flags: HW
LayerCount: 2
Fore
SplineSet
1049 410 m 0,0,1
 1049 307 1049 307 895 200 c 1,2,-1
 1047 0 l 1,3,-1
 967 0 l 1,4,-1
 836 169 l 1,5,-1
 777 144 l 1,6,7
 776 150 776 150 776 162 c 2,8,-1
 776 196 l 1,9,10
 911 254 911 254 966 334 c 0,11,12
 987 364 987 364 987 404 c 128,-1,13
 987 444 987 444 959.5 471.5 c 128,-1,14
 932 499 932 499 895.5 499 c 128,-1,15
 859 499 859 499 824 482 c 0,16,17
 790 464 790 464 760 436 c 0,18,19
 691 370 691 370 689 297 c 1,20,-1
 689 164 l 1,21,22
 666 142 666 142 631 111 c 128,-1,23
 596 80 596 80 548 52 c 0,24,25
 365 -16 365 -16 313 -16 c 0,26,27
 310 -16 310 -16 307 -16 c 1,28,29
 180 -16 180 -16 110 52.5 c 128,-1,30
 40 121 40 121 40 263 c 0,31,32
 40 476 40 476 198 518 c 0,33,34
 248 532 248 532 316.5 532 c 128,-1,35
 385 532 385 532 475 494 c 1,36,-1
 475 437 l 1,37,38
 384 486 384 486 313 486 c 0,39,40
 220 486 220 486 172 445 c 0,41,42
 110 392 110 392 110 265 c 0,43,44
 110 132 110 132 170 75 c 0,45,46
 218 30 218 30 313 30 c 256,47,48
 432 30 432 30 554 119 c 0,49,50
 591 146 591 146 621 178 c 1,51,-1
 621 795 l 1,52,-1
 689 795 l 1,53,-1
 689 406 l 1,54,55
 723 470 723 470 782 510 c 128,-1,56
 841 550 841 550 910 550 c 0,57,58
 970 550 970 550 1010 509 c 0,59,60
 1048 469 1048 469 1049 410 c 0,0,1
EndSplineSet
EndChar

StartChar: mm
Encoding: 65543 -1 217
Width: 1340
Flags: HW
LayerCount: 2
Fore
SplineSet
969 320 m 2,0,1
 969 484 969 484 879 484 c 0,2,3
 814 484 814 484 772 432 c 0,4,5
 735 386 735 386 732 325 c 1,6,-1
 735 0 l 1,7,-1
 671 0 l 1,8,-1
 671 330 l 2,9,10
 671 409 671 409 658.5 435.5 c 128,-1,11
 646 462 646 462 627.5 473 c 128,-1,12
 609 484 609 484 575 484 c 128,-1,13
 541 484 541 484 513.5 469.5 c 128,-1,14
 486 455 486 455 468 432 c 0,15,16
 432 386 432 386 432 320 c 2,17,-1
 432 0 l 1,18,-1
 367 0 l 1,19,-1
 367 320 l 2,20,21
 367 401 367 401 348 442.5 c 128,-1,22
 329 484 329 484 275 484 c 0,23,24
 204 484 204 484 164 430 c 0,25,26
 130 384 130 384 130 320 c 2,27,-1
 130 0 l 1,28,-1
 62 0 l 1,29,-1
 62 517 l 1,30,-1
 120 517 l 1,31,-1
 130 418 l 1,32,33
 166 504 166 504 256 526 c 0,34,35
 282 532 282 532 302.5 532.5 c 128,-1,36
 323 533 323 533 341.5 526.5 c 128,-1,37
 360 520 360 520 376 506 c 0,38,39
 413 474 413 474 425 418 c 1,40,41
 446 465 446 465 498 498 c 0,42,43
 553 533 553 533 609 533 c 0,44,45
 651 533 651 533 684 504 c 0,46,47
 721 472 721 472 732 406 c 1,48,49
 750 465 750 465 805 502 c 0,50,51
 851 533 851 533 909 533 c 0,52,53
 977 533 977 533 1012 473 c 0,54,55
 1025 451 1025 451 1030 418 c 1,56,57
 1048 466 1048 466 1102 500 c 0,58,59
 1153 532 1153 532 1215 533 c 0,60,61
 1279 533 1279 533 1307 486 c 0,62,63
 1337 436 1337 436 1337 323 c 2,64,-1
 1337 0 l 1,65,-1
 1273 0 l 1,66,-1
 1273 330 l 2,67,68
 1273 402 1273 402 1261.5 429.5 c 128,-1,69
 1250 457 1250 457 1231.5 470.5 c 128,-1,70
 1213 484 1213 484 1178.5 484 c 128,-1,71
 1144 484 1144 484 1116.5 469.5 c 128,-1,72
 1089 455 1089 455 1071 432 c 0,73,74
 1035 386 1035 386 1035 320 c 2,75,-1
 1035 0 l 1,76,-1
 969 0 l 1,77,-1
 969 320 l 2,0,1
EndSplineSet
EndChar

StartChar: oo
Encoding: 65544 -1 218
Width: 945
Flags: HW
LayerCount: 2
Fore
SplineSet
486 437 m 1,0,1
 568 533 568 533 692 533 c 0,2,3
 825 533 825 533 888 453 c 0,4,5
 941 385 941 385 941 261 c 0,6,7
 941 119 941 119 889 54 c 0,8,9
 832 -17 832 -17 706.5 -17 c 128,-1,10
 581 -17 581 -17 498 80 c 1,11,12
 417 -17 417 -17 288 -17 c 256,13,14
 160 -18 160 -18 96 66 c 0,15,16
 42 137 42 137 41 261 c 0,17,18
 40 398 40 398 94 462 c 0,19,20
 152 532 152 532 278 532.5 c 128,-1,21
 404 533 404 533 486 437 c 1,0,1
131 393 m 128,-1,23
 113 347 113 347 113 263 c 128,-1,24
 113 179 113 179 130 132.5 c 128,-1,25
 147 86 147 86 173 63 c 128,-1,26
 199 40 199 40 230 34.5 c 128,-1,27
 261 29 261 29 281.5 29 c 128,-1,28
 302 29 302 29 320.5 30 c 128,-1,29
 339 31 339 31 358 37.5 c 128,-1,30
 377 44 377 44 395.5 58 c 128,-1,31
 414 72 414 72 428 98 c 0,32,33
 460 157 460 157 460 251 c 128,-1,34
 460 345 460 345 438.5 391 c 128,-1,35
 417 437 417 437 388 458 c 0,36,37
 348 487 348 487 281 487 c 0,38,39
 260 487 260 487 231 484 c 128,-1,40
 202 481 202 481 175.5 460 c 128,-1,22
 149 439 149 439 131 393 c 128,-1,23
525 346 m 128,-1,42
 519 305 519 305 519 259 c 128,-1,43
 519 213 519 213 527 170.5 c 0,44,45
 536 128 536 128 556 96 c 0,46,47
 600 28 600 28 701 29 c 1,48,49
 745 29 745 29 766.5 36.5 c 128,-1,50
 788 44 788 44 805.5 58 c 128,-1,51
 823 72 823 72 837 98 c 0,52,53
 868 156 868 156 868 250.5 c 128,-1,54
 868 345 868 345 850 391 c 128,-1,55
 832 437 832 437 805 458 c 128,-1,56
 778 479 778 479 747.5 483 c 128,-1,57
 717 487 717 487 676.5 487 c 128,-1,58
 636 487 636 487 602 468.5 c 128,-1,59
 568 450 568 450 549.5 418.5 c 128,-1,41
 531 387 531 387 525 346 c 128,-1,42
EndSplineSet
EndChar

StartChar: rt
Encoding: 65545 -1 219
Width: 677
Flags: HW
LayerCount: 2
Fore
SplineSet
366 464 m 1,0,1
 311 481 311 481 288 481 c 128,-1,2
 265 481 265 481 239.5 475 c 128,-1,3
 214 469 214 469 193 446 c 0,4,5
 145 393 145 393 145 248 c 2,6,-1
 145 0 l 1,7,-1
 74 0 l 1,8,-1
 74 518 l 1,9,-1
 134 518 l 1,10,-1
 144 414 l 1,11,12
 159 470 159 470 205 504 c 0,13,14
 244 532 244 532 283 533 c 0,15,16
 339 533 339 533 372 518 c 1,17,-1
 366 464 l 1,0,1
678 2 m 1,18,19
 626 -13 626 -13 584 -13 c 0,20,21
 560 -14 560 -14 538 -8 c 0,22,23
 482 6 482 6 481 104 c 2,24,-1
 481 537 l 1,25,-1
 501 671 l 1,26,-1
 546 671 l 1,27,-1
 546 518 l 1,28,-1
 680 518 l 1,29,-1
 680 475 l 1,30,-1
 546 475 l 1,31,-1
 546 139 l 2,32,33
 546 72 546 72 554 58 c 128,-1,34
 562 44 562 44 573.5 40.5 c 128,-1,35
 585 37 585 37 609 37 c 128,-1,36
 633 37 633 37 678 57 c 1,37,-1
 678 2 l 1,18,19
EndSplineSet
EndChar

StartChar: periodcentered
Encoding: 65546 -1 220
Width: 290
Flags: HW
LayerCount: 2
Fore
SplineSet
106 391 m 1,0,-1
 191 391 l 1,1,-1
 191 306 l 1,2,-1
 106 306 l 1,3,-1
 106 391 l 1,0,-1
EndSplineSet
EndChar
